<svg width="10" height="16" viewBox="0 0 10 16" fill="none" xmlns="http://www.w3.org/2000/svg">
<path d="M0.537109 4.6875C0.582682 3.53516 0.989583 2.59766 1.75781 1.875C2.53255 1.15234 3.60352 0.791016 4.9707 0.791016C6.24674 0.791016 7.28516 1.13281 8.08594 1.81641C8.88672 2.49349 9.28711 3.35938 9.28711 4.41406C9.28711 5.82682 8.60352 6.94336 7.23633 7.76367C6.61133 8.13477 6.1849 8.47982 5.95703 8.79883C5.72917 9.11133 5.61523 9.52148 5.61523 10.0293V10.625H3.59375L3.58398 9.84375C3.55794 9.16667 3.69466 8.59049 3.99414 8.11523C4.30013 7.63997 4.79167 7.19727 5.46875 6.78711C6.06771 6.42904 6.48438 6.08398 6.71875 5.75195C6.95312 5.41992 7.07031 5.00326 7.07031 4.50195C7.07031 3.94206 6.86849 3.48307 6.46484 3.125C6.0612 2.76693 5.52734 2.58789 4.86328 2.58789C4.19271 2.58789 3.65234 2.77669 3.24219 3.1543C2.83203 3.5319 2.60417 4.04297 2.55859 4.6875H0.537109ZM4.61914 15.1465C4.26107 15.1465 3.95833 15.026 3.71094 14.7852C3.46354 14.5443 3.33984 14.2448 3.33984 13.8867C3.33984 13.5286 3.46354 13.2292 3.71094 12.9883C3.95833 12.7474 4.26107 12.627 4.61914 12.627C4.98372 12.627 5.28971 12.7474 5.53711 12.9883C5.78451 13.2292 5.9082 13.5286 5.9082 13.8867C5.9082 14.2448 5.78451 14.5443 5.53711 14.7852C5.28971 15.026 4.98372 15.1465 4.61914 15.1465Z" fill="black"/>
</svg>
