<svg width="60" height="60" viewBox="0 0 60 60" fill="none" xmlns="http://www.w3.org/2000/svg">
<path d="M29.8125 55.6875C16.7344 55.6875 2.625 47.4844 2.625 29.4844C2.625 11.4844 16.7344 3.28125 29.8125 3.28125C37.0781 3.28125 43.7812 5.67188 48.75 10.0312C54.1406 14.8125 57 21.5625 57 29.4844C57 37.4062 54.1406 44.1094 48.75 48.8906C43.7812 53.25 37.0312 55.6875 29.8125 55.6875Z" fill="url(#paint0_radial_3714_3076)"/>
<path d="M52.2608 13.9082C54.7593 17.9395 56.0624 22.7395 56.0624 28.0785C56.0624 36.0004 53.203 42.7035 47.8124 47.4848C42.8437 51.8441 36.0937 54.2816 28.8749 54.2816C20.4093 54.2816 11.5312 50.8363 6.29053 43.5285C11.3343 51.8066 20.8218 55.6879 29.8124 55.6879C37.0312 55.6879 43.7812 53.2504 48.7499 48.891C54.1405 44.1098 56.9999 37.4066 56.9999 29.4848C56.9999 23.5129 55.3733 18.2066 52.2608 13.9082Z" fill="#EB8F00"/>
<path d="M29.9999 40.8516C35.0718 40.8516 38.3577 44.5641 39.2109 46.275C39.539 46.9359 39.5577 47.4844 39.2765 47.7422C38.9812 47.9344 38.5968 47.9344 38.3015 47.7422C38.1562 47.6719 38.0109 47.5922 37.8796 47.4984C33.1687 44.1234 26.8359 44.1234 22.1249 47.4984C21.9937 47.5922 21.853 47.6719 21.703 47.7422C21.4077 47.9391 21.0234 47.9391 20.728 47.7422C20.4468 47.4844 20.4655 46.9359 20.7937 46.275C21.6421 44.5687 24.928 40.8516 29.9999 40.8516Z" fill="#422B0D"/>
<path d="M12.839 18.6417C11.8078 18.8246 11.7562 20.3246 12.8812 20.3761C15.3656 20.4136 17.7656 19.4949 19.5937 17.8121C20.2875 17.2121 20.8781 16.5042 21.3328 15.7074C21.6046 15.3183 21.5109 14.7839 21.1265 14.5074C20.7421 14.2308 20.2031 14.3292 19.9265 14.7136L19.8796 14.7605C18.0375 16.8183 15.5578 18.1824 12.839 18.6417Z" fill="#422B0D"/>
<path d="M40.3688 14.7746L40.3219 14.7277C40.05 14.3386 39.511 14.2449 39.1219 14.5168C38.7328 14.7886 38.6391 15.3277 38.9156 15.7168C39.375 16.509 39.9656 17.2168 40.6641 17.8121C42.4922 19.4949 44.8922 20.409 47.3766 20.3668C48.5016 20.3152 48.45 18.8152 47.4141 18.6324C44.6953 18.1777 42.2156 16.8183 40.3688 14.7746Z" fill="#422B0D"/>
<path d="M9.1499 50.1557C5.18428 50.1557 2.11865 46.3073 2.11865 43.012C2.11865 40.6964 3.15459 38.0104 4.62178 34.2886C4.80459 33.7401 5.04834 33.187 5.29209 32.5776C5.99053 30.8339 6.60459 28.9448 7.54209 27.3089C7.9874 26.512 8.99521 26.2307 9.7874 26.6761C10.0499 26.8261 10.2702 27.0417 10.4202 27.3089C11.2921 28.9167 11.8921 30.6557 12.7968 32.6854C15.3608 38.4229 16.078 40.7432 16.078 43.0589C16.1671 46.3261 13.0546 50.1557 9.1499 50.1557Z" fill="url(#paint1_radial_3714_3076)"/>
<path d="M13.439 45.7721C12.5437 47.1784 10.5093 46.8971 10.5093 44.5956C10.5093 43.1237 10.8093 35.5674 12.0749 36.6268C14.128 38.3471 14.714 43.8127 13.439 45.7721Z" fill="#81D4FA"/>
<path d="M20.939 25.752C18.9749 25.752 17.189 27.4113 17.189 30.1676C17.189 32.9238 18.9749 34.5785 20.939 34.5785C22.903 34.5785 24.689 32.9191 24.689 30.1676C24.689 27.416 22.903 25.752 20.939 25.752Z" fill="#422B0D"/>
<path d="M20.7562 27.5943C20.0906 27.2755 19.289 27.5568 18.9656 28.2224C18.7172 28.7427 18.8297 29.3661 19.2469 29.7693C19.9125 30.088 20.714 29.8068 21.0375 29.1411C21.2859 28.6208 21.1734 27.9974 20.7562 27.5943Z" fill="#896024"/>
<path d="M38.9062 25.752C36.9422 25.752 35.1562 27.4113 35.1562 30.1676C35.1562 32.9238 36.9422 34.5785 38.9062 34.5785C40.8703 34.5785 42.6562 32.9191 42.6562 30.1676C42.6562 27.416 40.8797 25.752 38.9062 25.752Z" fill="#422B0D"/>
<path d="M38.7328 27.5943C38.0672 27.2755 37.2656 27.5568 36.9422 28.2224C36.6937 28.7427 36.8062 29.3661 37.2234 29.7693C37.889 30.088 38.6906 29.8068 39.014 29.1411C39.2625 28.6208 39.15 27.9974 38.7328 27.5943Z" fill="#896024"/>
<defs>
<radialGradient id="paint0_radial_3714_3076" cx="0" cy="0" r="1" gradientUnits="userSpaceOnUse" gradientTransform="translate(29.8125 29.4844) scale(26.6999 26.6999)">
<stop offset="0.5" stop-color="#FDE030"/>
<stop offset="0.92" stop-color="#F7C02B"/>
<stop offset="1" stop-color="#F4A223"/>
</radialGradient>
<radialGradient id="paint1_radial_3714_3076" cx="0" cy="0" r="1" gradientUnits="userSpaceOnUse" gradientTransform="translate(9.65147 29.5028) scale(15.6563 24.1106)">
<stop offset="0.46" stop-color="#29B6F6"/>
<stop offset="1" stop-color="#1E88E5"/>
</radialGradient>
</defs>
</svg>
