<svg width="12" height="16" viewBox="0 0 12 16" fill="none" xmlns="http://www.w3.org/2000/svg">
<path fill-rule="evenodd" clip-rule="evenodd" d="M3.56829 0.6552C3.42857 0.9112 3.42857 1.2472 3.42857 1.92V7.2H2.40257C1.64571 7.2 1.26686 7.2 1.08771 7.3408C1.01084 7.40111 0.950181 7.47739 0.910587 7.56352C0.870993 7.64966 0.85357 7.74325 0.859714 7.8368C0.874286 8.056 1.13571 8.3112 1.65771 8.8224L5.256 12.3432C5.51486 12.5976 5.64429 12.724 5.796 12.7712C5.92838 12.8126 6.07162 12.8126 6.204 12.7712C6.35571 12.724 6.48514 12.5976 6.744 12.3432L10.3423 8.8232C10.8651 8.3112 11.1257 8.0552 11.1394 7.8368C11.1457 7.74331 11.1284 7.64976 11.0889 7.56363C11.0495 7.4775 10.989 7.40119 10.9123 7.3408C10.7331 7.2 10.3551 7.2 9.59743 7.2H8.57143V1.92C8.57143 1.248 8.57143 0.912 8.43086 0.6552C8.30778 0.429328 8.11125 0.245619 7.86943 0.1304C7.59514 8.34465e-08 7.23514 0 6.51429 0H5.48571C4.76571 0 4.40571 8.34465e-08 4.13057 0.1304C3.88844 0.245483 3.69159 0.429206 3.56829 0.6552ZM0 15.2C0 15.4122 0.090306 15.6157 0.251051 15.7657C0.411797 15.9157 0.629814 16 0.857143 16H11.1429C11.3702 16 11.5882 15.9157 11.7489 15.7657C11.9097 15.6157 12 15.4122 12 15.2C12 14.9878 11.9097 14.7843 11.7489 14.6343C11.5882 14.4843 11.3702 14.4 11.1429 14.4H0.857143C0.629814 14.4 0.411797 14.4843 0.251051 14.6343C0.090306 14.7843 0 14.9878 0 15.2Z" fill="#F05523"/>
</svg>
