<svg width="26" height="26" viewBox="0 0 26 26" fill="none" xmlns="http://www.w3.org/2000/svg">
<g filter="url(#filter0_d)">
<circle cx="13" cy="11" r="11" fill="#FF6D7C"/>
</g>
<path d="M9.66666 11.4167H16.75C16.9792 11.4167 17.1667 11.6042 17.1667 11.8333V14.3333C17.1667 14.5625 16.9792 14.75 16.75 14.75H9.66666C9.4375 14.75 9.25 14.5625 9.25 14.3333V11.8333C9.25 11.6042 9.4375 11.4167 9.66666 11.4167ZM9.66666 7.25H16.75C16.9792 7.25 17.1667 7.4375 17.1667 7.66667V10.1667C17.1667 10.3958 16.9792 10.5833 16.75 10.5833H9.66666C9.4375 10.5833 9.25 10.3958 9.25 10.1667V7.66667C9.25 7.4375 9.4375 7.25 9.66666 7.25Z" fill="white"/>
<defs>
<filter id="filter0_d" x="0" y="0" width="26" height="26" filterUnits="userSpaceOnUse" color-interpolation-filters="sRGB">
<feFlood flood-opacity="0" result="BackgroundImageFix"/>
<feColorMatrix in="SourceAlpha" type="matrix" values="0 0 0 0 0 0 0 0 0 0 0 0 0 0 0 0 0 0 127 0"/>
<feOffset dy="2"/>
<feGaussianBlur stdDeviation="1"/>
<feColorMatrix type="matrix" values="0 0 0 0 0 0 0 0 0 0 0 0 0 0 0 0 0 0 0.1 0"/>
<feBlend mode="normal" in2="BackgroundImageFix" result="effect1_dropShadow"/>
<feBlend mode="normal" in="SourceGraphic" in2="effect1_dropShadow" result="shape"/>
</filter>
</defs>
</svg>
