<svg width="26" height="26" viewBox="0 0 26 26" fill="none" xmlns="http://www.w3.org/2000/svg">
<g filter="url(#filter0_d)">
<circle cx="13" cy="11" r="11" fill="#C283CE"/>
</g>
<path d="M13 6C11.065 6 9.5 7.565 9.5 9.5C9.5 12.125 13 16 13 16C13 16 16.5 12.125 16.5 9.5C16.5 7.565 14.935 6 13 6ZM13 10.75C12.31 10.75 11.75 10.19 11.75 9.5C11.75 8.81 12.31 8.25 13 8.25C13.69 8.25 14.25 8.81 14.25 9.5C14.25 10.19 13.69 10.75 13 10.75Z" fill="white"/>
<defs>
<filter id="filter0_d" x="0" y="0" width="26" height="26" filterUnits="userSpaceOnUse" color-interpolation-filters="sRGB">
<feFlood flood-opacity="0" result="BackgroundImageFix"/>
<feColorMatrix in="SourceAlpha" type="matrix" values="0 0 0 0 0 0 0 0 0 0 0 0 0 0 0 0 0 0 127 0"/>
<feOffset dy="2"/>
<feGaussianBlur stdDeviation="1"/>
<feColorMatrix type="matrix" values="0 0 0 0 0 0 0 0 0 0 0 0 0 0 0 0 0 0 0.1 0"/>
<feBlend mode="normal" in2="BackgroundImageFix" result="effect1_dropShadow"/>
<feBlend mode="normal" in="SourceGraphic" in2="effect1_dropShadow" result="shape"/>
</filter>
</defs>
</svg>
