<svg width="26" height="26" viewBox="0 0 26 26" fill="none" xmlns="http://www.w3.org/2000/svg">
<g filter="url(#filter0_d)">
<circle cx="13" cy="11" r="11" fill="#FF97C4"/>
</g>
<path d="M12.875 10.3125C11.4562 9.94375 11 9.5625 11 8.96875C11 8.2875 11.6312 7.8125 12.6875 7.8125C13.8 7.8125 14.2125 8.34375 14.25 9.125H15.6312C15.5875 8.05 14.9312 7.0625 13.625 6.74375V5.375H11.75V6.725C10.5375 6.9875 9.5625 7.775 9.5625 8.98125C9.5625 10.425 10.7562 11.1437 12.5 11.5625C14.0625 11.9375 14.375 12.4875 14.375 13.0688C14.375 13.5 14.0687 14.1875 12.6875 14.1875C11.4 14.1875 10.8937 13.6125 10.825 12.875H9.45C9.525 14.2437 10.55 15.0125 11.75 15.2688V16.625H13.625V15.2812C14.8437 15.05 15.8125 14.3438 15.8125 13.0625C15.8125 11.2875 14.2937 10.6812 12.875 10.3125Z" fill="white"/>
<defs>
<filter id="filter0_d" x="0" y="0" width="26" height="26" filterUnits="userSpaceOnUse" color-interpolation-filters="sRGB">
<feFlood flood-opacity="0" result="BackgroundImageFix"/>
<feColorMatrix in="SourceAlpha" type="matrix" values="0 0 0 0 0 0 0 0 0 0 0 0 0 0 0 0 0 0 127 0"/>
<feOffset dy="2"/>
<feGaussianBlur stdDeviation="1"/>
<feColorMatrix type="matrix" values="0 0 0 0 0 0 0 0 0 0 0 0 0 0 0 0 0 0 0.1 0"/>
<feBlend mode="normal" in2="BackgroundImageFix" result="effect1_dropShadow"/>
<feBlend mode="normal" in="SourceGraphic" in2="effect1_dropShadow" result="shape"/>
</filter>
</defs>
</svg>
