<?xml version="1.0" standalone="no"?>
<!DOCTYPE svg PUBLIC "-//W3C//DTD SVG 1.0//EN" "http://www.w3.org/TR/2001/REC-SVG-20010904/DTD/svg10.dtd">
<svg xmlns="http://www.w3.org/2000/svg" xmlns:xlink="http://www.w3.org/1999/xlink" id="body_1" width="400" height="400">

<g transform="matrix(4 0 0 4 0 0)">
	<g transform="matrix(1 0 0 1 0 0)">
	</g>
    <path transform="matrix(1 0 0 1 0 0)"  d="M100 25C 100 11.192882 88.80712 0 75 0L75 0L25 0C 11.192879 0 0 11.192882 0 25L0 25L0 75C 0 88.80712 11.192879 100 25 100L25 100L75 100C 88.80712 100 100 88.80712 100 75L100 75L100 25z" stroke="none" fill="#F05523" fill-rule="nonzero" />
	<g transform="matrix(1 0 0 1 0 0)">
	</g>
    <path transform="matrix(1 0 0 1 0 0)"  d="M49.6 19.92C 53.28 19.92 56.4267 20.4533 59.04 21.52C 61.6533 22.5333 64.1867 24.1333 66.64 26.32L66.64 26.32L62.48 30.96C 60.4 29.3067 58.3467 28.1067 56.32 27.36C 54.3467 26.56 52.2133 26.16 49.92 26.16C 47.04 26.16 44.6667 26.8267 42.8 28.16C 40.9333 29.4933 40 31.44 40 34C 40 35.6 40.32 36.96 40.96 38.08C 41.6 39.1467 42.7733 40.1333 44.48 41.04C 46.24 41.9467 48.7733 42.9067 52.08 43.92C 55.5467 44.9867 58.4267 46.1333 60.72 47.36C 63.0133 48.5867 64.8533 50.2933 66.24 52.48C 67.68 54.6133 68.4 57.3333 68.4 60.64C 68.4 63.84 67.6 66.6667 66 69.12C 64.4533 71.5733 62.1867 73.4933 59.2 74.88C 56.2667 76.2667 52.7733 76.96 48.72 76.96C 41.0933 76.96 34.8533 74.5867 30 69.84L30 69.84L34.16 65.2C 36.4 67.0133 38.6667 68.4 40.96 69.36C 43.2533 70.2667 45.8133 70.72 48.64 70.72C 52.0533 70.72 54.88 69.8933 57.12 68.24C 59.36 66.5333 60.48 64.08 60.48 60.88C 60.48 59.0667 60.1333 57.5733 59.44 56.4C 58.7467 55.1733 57.5467 54.08 55.84 53.12C 54.1867 52.16 51.76 51.2 48.56 50.24C 42.9067 48.5333 38.7733 46.48 36.16 44.08C 33.5467 41.68 32.24 38.4267 32.24 34.32C 32.24 31.5467 32.96 29.0667 34.4 26.88C 35.8933 24.6933 37.9467 22.9867 40.56 21.76C 43.2267 20.5333 46.24 19.92 49.6 19.92z" stroke="none" fill="#FFFFFF" fill-rule="nonzero" />
</g>
</svg>