<svg id="svg" version="1.1" xmlns="http://www.w3.org/2000/svg" xmlns:xlink="http://www.w3.org/1999/xlink" width="400" height="400" viewBox="0, 0, 400,400"><g id="svgg"><path id="path0" d="M0.000 200.000 L 0.000 400.000 200.000 400.000 L 400.000 400.000 400.000 200.000 L 400.000 0.000 200.000 0.000 L 0.000 0.000 0.000 200.000 M216.406 103.244 C 225.973 104.891,241.671 108.760,242.675 109.719 C 243.112 110.137,240.617 123.248,236.718 141.016 C 234.809 149.717,232.459 160.439,231.496 164.844 C 230.534 169.248,228.605 177.949,227.210 184.180 C 222.854 203.639,218.750 223.498,218.750 225.121 C 218.750 227.130,219.503 225.799,220.874 221.367 C 227.243 200.777,231.795 185.793,232.824 182.031 C 233.500 179.561,236.309 169.893,239.068 160.547 C 241.827 151.201,244.721 141.270,245.500 138.477 C 248.974 126.023,250.356 122.204,251.290 122.480 C 252.870 122.948,266.503 130.634,267.894 131.842 C 267.960 131.899,265.261 137.634,261.896 144.586 C 254.816 159.217,250.127 169.789,250.538 170.199 C 250.941 170.603,257.516 162.174,265.039 151.610 C 270.237 144.311,270.451 144.069,271.054 144.837 C 271.398 145.275,273.366 147.626,275.428 150.063 C 292.762 170.549,300.699 191.734,302.330 221.875 C 303.283 239.472,304.328 246.742,306.825 253.125 C 315.022 274.079,313.208 279.517,294.972 288.650 C 282.654 294.820,272.325 296.524,243.701 297.107 C 231.108 297.364,227.189 297.209,213.477 295.911 C 210.254 295.606,206.475 295.260,205.078 295.143 C 175.554 292.670,133.210 281.195,109.019 269.111 C 69.504 249.373,61.941 234.220,80.859 212.694 C 86.933 205.784,89.877 200.700,94.545 189.063 C 105.855 160.865,122.178 141.562,146.511 127.607 C 153.549 123.572,153.496 123.525,157.759 137.695 C 160.252 145.983,162.332 152.306,162.680 152.654 C 163.467 153.441,163.304 148.993,161.902 131.445 C 160.498 113.886,160.583 113.248,164.492 112.065 C 167.108 111.273,174.643 110.156,177.370 110.156 L 179.402 110.156 179.163 119.043 C 178.922 128.038,178.739 131.065,177.374 148.633 C 176.957 154.004,176.417 161.475,176.174 165.234 C 175.932 168.994,175.396 176.201,174.984 181.250 C 174.572 186.299,174.137 192.627,174.017 195.313 C 173.897 197.998,173.630 202.920,173.424 206.250 C 173.218 209.580,173.066 213.711,173.087 215.430 L 173.124 218.555 173.876 214.648 C 175.112 208.233,179.254 183.566,179.484 181.250 C 179.601 180.068,179.958 177.432,180.275 175.391 C 182.717 159.709,184.474 147.602,185.151 141.797 C 185.589 138.037,186.732 129.160,187.691 122.070 C 188.650 114.980,189.548 107.949,189.686 106.445 C 190.113 101.797,190.752 101.530,200.977 101.725 C 207.272 101.845,209.614 102.075,216.406 103.244 M89.135 224.707 C 90.226 226.711,100.288 236.935,104.102 239.914 C 114.789 248.263,131.858 256.581,147.614 261.118 C 150.108 261.836,154.875 263.226,158.207 264.207 C 176.454 269.579,202.522 274.156,220.703 275.178 C 257.139 277.228,283.243 272.401,295.313 261.380 L 297.070 259.775 294.727 260.792 C 277.346 268.333,251.659 270.530,220.313 267.155 C 216.338 266.727,212.822 266.305,212.500 266.218 C 212.178 266.131,209.893 265.865,207.422 265.628 C 194.954 264.430,168.450 259.040,152.539 254.466 C 123.196 246.031,110.193 240.274,98.438 230.513 C 89.626 223.196,87.636 221.954,89.135 224.707 " stroke="none" fill="#f35323" fill-rule="evenodd"></path><path id="path1" d="M197.266 101.990 C 192.229 102.251,190.740 102.687,190.444 103.990 C 190.077 105.604,188.689 116.033,187.491 126.172 C 186.167 137.387,181.032 173.959,179.319 184.375 C 178.700 188.135,177.915 193.013,177.574 195.215 C 177.232 197.417,176.674 201.021,176.334 203.223 C 175.446 208.961,173.834 217.500,173.452 218.490 C 172.396 221.223,172.476 210.618,173.622 195.898 C 174.449 185.271,174.556 183.761,174.998 176.367 C 175.217 172.715,175.484 168.672,175.592 167.383 C 175.700 166.094,176.050 161.787,176.370 157.813 C 176.689 153.838,177.044 149.443,177.157 148.047 C 177.271 146.650,177.530 142.607,177.733 139.063 C 177.937 135.518,178.403 127.736,178.770 121.769 C 179.558 108.943,179.906 109.912,174.735 110.513 C 160.305 112.191,160.674 111.601,162.267 130.469 C 163.147 140.891,163.532 153.125,162.980 153.125 C 162.435 153.125,161.747 151.255,157.660 138.667 C 154.879 130.100,153.309 125.936,152.535 125.073 C 152.329 124.844,145.208 128.575,141.643 130.780 C 120.889 143.614,104.902 163.782,94.079 190.780 C 89.692 201.724,86.956 206.342,80.484 213.734 C 67.962 228.031,67.608 236.986,79.102 248.666 C 111.972 282.072,209.297 304.629,276.172 294.342 C 283.563 293.205,287.448 292.027,293.555 289.069 C 311.361 280.444,314.809 272.780,308.026 256.900 C 303.616 246.575,303.205 244.159,302.138 222.266 C 300.696 192.704,291.706 169.137,274.171 148.953 L 270.377 144.586 264.192 153.232 C 255.053 166.009,250.000 172.175,250.000 170.552 C 250.000 169.483,253.123 162.189,257.044 154.102 C 259.023 150.020,262.187 143.390,264.077 139.368 L 267.511 132.057 261.783 128.564 C 255.957 125.012,250.938 122.359,250.644 122.676 C 250.454 122.882,244.559 142.797,238.856 162.500 C 236.649 170.127,233.522 180.762,231.909 186.133 C 230.295 191.504,228.156 198.711,227.155 202.148 C 224.726 210.496,220.833 222.678,219.900 224.856 C 218.991 226.976,218.267 226.773,218.587 224.488 C 219.336 219.141,221.849 206.598,224.668 194.141 C 225.518 190.381,227.420 181.768,228.893 175.000 C 230.367 168.232,232.804 157.158,234.310 150.391 C 237.315 136.888,242.101 114.008,242.446 111.496 L 242.665 109.905 239.790 109.067 C 229.905 106.187,215.501 103.080,208.789 102.381 C 202.880 101.765,202.117 101.739,197.266 101.990 M90.664 223.881 C 91.609 224.555,93.525 226.103,94.922 227.320 C 105.792 236.795,112.183 240.363,130.273 247.060 C 153.985 255.838,187.454 263.328,217.383 266.555 C 250.732 270.150,278.760 267.992,294.527 260.616 C 297.655 259.153,297.987 259.367,295.703 261.374 C 275.469 279.148,222.528 281.005,163.477 266.011 C 137.252 259.352,117.424 250.740,104.088 240.215 C 94.667 232.781,82.671 218.184,90.664 223.881 " stroke="none" fill="#fbfbfb" fill-rule="evenodd"></path><path id="path2" d="M162.981 145.703 C 162.981 146.455,163.062 146.763,163.160 146.387 C 163.258 146.011,163.258 145.396,163.160 145.020 C 163.062 144.644,162.981 144.951,162.981 145.703 M175.872 165.625 C 175.872 166.377,175.952 166.685,176.051 166.309 C 176.149 165.933,176.149 165.317,176.051 164.941 C 175.952 164.565,175.872 164.873,175.872 165.625 M172.777 216.211 C 172.779 217.500,172.852 217.980,172.939 217.278 C 173.026 216.576,173.024 215.521,172.935 214.934 C 172.846 214.347,172.775 214.922,172.777 216.211 M79.883 250.000 C 80.722 250.859,81.496 251.563,81.604 251.563 C 81.711 251.563,81.113 250.859,80.273 250.000 C 79.434 249.141,78.660 248.438,78.552 248.438 C 78.445 248.438,79.044 249.141,79.883 250.000 M234.087 268.249 C 234.681 268.339,235.560 268.336,236.041 268.244 C 236.521 268.151,236.035 268.078,234.961 268.080 C 233.887 268.083,233.494 268.159,234.087 268.249 M231.938 297.151 C 232.424 297.245,233.127 297.241,233.501 297.143 C 233.874 297.046,233.477 296.969,232.617 296.974 C 231.758 296.978,231.452 297.058,231.938 297.151 M235.840 297.151 C 236.323 297.244,237.114 297.244,237.598 297.151 C 238.081 297.058,237.686 296.981,236.719 296.981 C 235.752 296.981,235.356 297.058,235.840 297.151 M242.676 297.160 C 243.481 297.244,244.800 297.244,245.605 297.160 C 246.411 297.075,245.752 297.006,244.141 297.006 C 242.529 297.006,241.870 297.075,242.676 297.160 " stroke="none" fill="#f49373" fill-rule="evenodd"></path><path id="path3" d="M196.594 101.850 C 197.621 101.931,199.203 101.930,200.109 101.848 C 201.016 101.766,200.176 101.700,198.242 101.701 C 196.309 101.702,195.567 101.769,196.594 101.850 M161.028 116.406 C 161.028 117.158,161.109 117.466,161.207 117.090 C 161.305 116.714,161.305 116.099,161.207 115.723 C 161.109 115.347,161.028 115.654,161.028 116.406 M178.614 124.414 C 178.618 125.273,178.698 125.579,178.792 125.093 C 178.885 124.607,178.882 123.904,178.784 123.531 C 178.686 123.157,178.610 123.555,178.614 124.414 M161.825 127.344 C 161.825 128.311,161.901 128.706,161.994 128.223 C 162.088 127.739,162.088 126.948,161.994 126.465 C 161.901 125.981,161.825 126.377,161.825 127.344 M178.237 130.664 C 178.240 131.738,178.316 132.131,178.405 131.538 C 178.495 130.944,178.493 130.065,178.400 129.584 C 178.307 129.104,178.234 129.590,178.237 130.664 M162.216 132.031 C 162.216 132.998,162.292 133.394,162.385 132.910 C 162.478 132.427,162.478 131.636,162.385 131.152 C 162.292 130.669,162.216 131.064,162.216 132.031 M177.851 137.109 C 177.851 138.291,177.925 138.774,178.014 138.184 C 178.104 137.593,178.104 136.626,178.014 136.035 C 177.925 135.444,177.851 135.928,177.851 137.109 M162.599 137.305 C 162.603 138.164,162.683 138.470,162.776 137.984 C 162.870 137.498,162.866 136.795,162.768 136.421 C 162.671 136.048,162.594 136.445,162.599 137.305 M121.661 146.582 L 120.117 148.242 121.777 146.698 C 123.321 145.262,123.617 144.922,123.321 144.922 C 123.258 144.922,122.511 145.669,121.661 146.582 M175.489 169.336 C 175.493 170.195,175.573 170.501,175.667 170.015 C 175.760 169.529,175.757 168.826,175.659 168.452 C 175.561 168.079,175.485 168.477,175.489 169.336 M175.106 174.609 C 175.106 175.576,175.183 175.972,175.276 175.488 C 175.369 175.005,175.369 174.214,175.276 173.730 C 175.183 173.247,175.106 173.643,175.106 174.609 M173.145 202.539 C 173.150 203.398,173.230 203.704,173.323 203.218 C 173.417 202.732,173.413 202.029,173.315 201.656 C 173.217 201.282,173.141 201.680,173.145 202.539 M172.790 211.133 C 172.792 212.852,172.860 213.506,172.943 212.587 C 173.025 211.669,173.024 210.262,172.940 209.462 C 172.856 208.662,172.789 209.414,172.790 211.133 M302.434 229.297 C 302.434 230.049,302.515 230.356,302.613 229.980 C 302.711 229.604,302.711 228.989,302.613 228.613 C 302.515 228.237,302.434 228.545,302.434 229.297 M97.656 234.497 C 97.656 234.564,98.228 235.136,98.926 235.767 L 100.195 236.914 99.048 235.645 C 97.979 234.461,97.656 234.195,97.656 234.497 M302.825 235.938 C 302.825 236.689,302.905 236.997,303.004 236.621 C 303.102 236.245,303.102 235.630,303.004 235.254 C 302.905 234.878,302.825 235.186,302.825 235.938 M229.985 267.854 C 230.471 267.948,231.174 267.944,231.548 267.847 C 231.921 267.749,231.523 267.672,230.664 267.677 C 229.805 267.681,229.499 267.761,229.985 267.854 M263.379 267.847 C 263.755 267.946,264.370 267.946,264.746 267.847 C 265.122 267.749,264.814 267.669,264.063 267.669 C 263.311 267.669,263.003 267.749,263.379 267.847 M237.598 268.249 C 238.188 268.338,239.155 268.338,239.746 268.249 C 240.337 268.159,239.854 268.086,238.672 268.086 C 237.490 268.086,237.007 268.159,237.598 268.249 M257.520 268.238 C 257.896 268.336,258.511 268.336,258.887 268.238 C 259.263 268.140,258.955 268.059,258.203 268.059 C 257.451 268.059,257.144 268.140,257.520 268.238 M247.754 275.660 C 248.130 275.758,248.745 275.758,249.121 275.660 C 249.497 275.562,249.189 275.481,248.438 275.481 C 247.686 275.481,247.378 275.562,247.754 275.660 M231.543 276.071 C 233.101 276.145,235.649 276.145,237.207 276.071 C 238.765 275.997,237.490 275.936,234.375 275.936 C 231.260 275.936,229.985 275.997,231.543 276.071 M307.010 280.371 L 305.664 281.836 307.129 280.490 C 308.492 279.237,308.773 278.906,308.475 278.906 C 308.410 278.906,307.751 279.565,307.010 280.371 M264.551 295.972 C 264.927 296.071,265.542 296.071,265.918 295.972 C 266.294 295.874,265.986 295.794,265.234 295.794 C 264.482 295.794,264.175 295.874,264.551 295.972 M225.293 296.760 C 225.776 296.853,226.567 296.853,227.051 296.760 C 227.534 296.667,227.139 296.591,226.172 296.591 C 225.205 296.591,224.810 296.667,225.293 296.760 M238.965 297.151 C 239.448 297.244,240.239 297.244,240.723 297.151 C 241.206 297.058,240.811 296.981,239.844 296.981 C 238.877 296.981,238.481 297.058,238.965 297.151 " stroke="none" fill="#f8ac94" fill-rule="evenodd"></path><path id="path4" d="M178.997 121.875 C 178.997 122.627,179.077 122.935,179.176 122.559 C 179.274 122.183,179.274 121.567,179.176 121.191 C 179.077 120.815,178.997 121.123,178.997 121.875 M178.614 128.711 C 178.618 129.570,178.698 129.876,178.792 129.390 C 178.885 128.904,178.882 128.201,178.784 127.827 C 178.686 127.454,178.610 127.852,178.614 128.711 M178.216 135.156 C 178.216 135.908,178.296 136.216,178.394 135.840 C 178.493 135.464,178.493 134.849,178.394 134.473 C 178.296 134.097,178.216 134.404,178.216 135.156 M162.200 136.328 C 162.200 137.080,162.280 137.388,162.379 137.012 C 162.477 136.636,162.477 136.021,162.379 135.645 C 162.280 135.269,162.200 135.576,162.200 136.328 M162.606 141.016 C 162.606 141.982,162.683 142.378,162.776 141.895 C 162.869 141.411,162.869 140.620,162.776 140.137 C 162.683 139.653,162.606 140.049,162.606 141.016 M176.284 161.914 C 176.287 162.988,176.362 163.381,176.452 162.788 C 176.542 162.194,176.540 161.315,176.447 160.834 C 176.354 160.354,176.281 160.840,176.284 161.914 M173.555 200.781 C 173.555 201.963,173.628 202.446,173.717 201.855 C 173.807 201.265,173.807 200.298,173.717 199.707 C 173.628 199.116,173.555 199.600,173.555 200.781 M173.145 208.398 C 173.150 209.258,173.230 209.563,173.323 209.077 C 173.417 208.592,173.413 207.888,173.315 207.515 C 173.217 207.142,173.141 207.539,173.145 208.398 M95.703 232.617 C 96.432 233.369,97.116 233.984,97.224 233.984 C 97.331 233.984,96.823 233.369,96.094 232.617 C 95.365 231.865,94.681 231.250,94.573 231.250 C 94.466 231.250,94.974 231.865,95.703 232.617 M302.825 232.813 C 302.825 233.564,302.905 233.872,303.004 233.496 C 303.102 233.120,303.102 232.505,303.004 232.129 C 302.905 231.753,302.825 232.061,302.825 232.813 M303.216 237.109 C 303.216 237.861,303.296 238.169,303.394 237.793 C 303.493 237.417,303.493 236.802,303.394 236.426 C 303.296 236.050,303.216 236.357,303.216 237.109 M239.746 268.645 C 240.659 268.728,242.153 268.728,243.066 268.645 C 243.979 268.563,243.232 268.496,241.406 268.496 C 239.580 268.496,238.833 268.563,239.746 268.645 M249.712 268.640 C 250.306 268.729,251.185 268.727,251.666 268.634 C 252.146 268.542,251.660 268.468,250.586 268.471 C 249.512 268.474,249.119 268.550,249.712 268.640 M311.427 270.898 C 311.431 271.758,311.511 272.063,311.604 271.577 C 311.698 271.092,311.694 270.388,311.597 270.015 C 311.499 269.642,311.422 270.039,311.427 270.898 M227.637 275.673 C 228.335 275.760,229.478 275.760,230.176 275.673 C 230.874 275.587,230.303 275.516,228.906 275.516 C 227.510 275.516,226.938 275.587,227.637 275.673 M244.829 275.667 C 245.315 275.760,246.018 275.757,246.391 275.659 C 246.765 275.561,246.367 275.485,245.508 275.489 C 244.648 275.493,244.343 275.573,244.829 275.667 " stroke="none" fill="#f47048" fill-rule="evenodd"></path></g></svg>