<svg width="20" height="20" viewBox="0 0 20 20" fill="none" xmlns="http://www.w3.org/2000/svg">
<circle cx="10" cy="10" r="9.5" fill="#61AE72" stroke="#61AE72"/>
<path d="M5.75461 9.84382C5.39221 9.42706 4.76058 9.383 4.34382 9.74539C3.92706 10.1078 3.883 10.7394 4.24539 11.1562L5.75461 9.84382ZM8.04348 14L7.28887 14.6562C7.4788 14.8746 7.75404 15 8.04348 15C8.33292 15 8.60816 14.8746 8.79808 14.6562L8.04348 14ZM15.7546 6.65618C16.117 6.23942 16.0729 5.60779 15.6562 5.24539C15.2394 4.883 14.6078 4.92706 14.2454 5.34382L15.7546 6.65618ZM4.24539 11.1562L7.28887 14.6562L8.79808 13.3438L5.75461 9.84382L4.24539 11.1562ZM8.79808 14.6562L15.7546 6.65618L14.2454 5.34382L7.28887 13.3438L8.79808 14.6562Z" fill="white"/>
</svg>
