<svg id="svg" version="1.1" xmlns="http://www.w3.org/2000/svg" xmlns:xlink="http://www.w3.org/1999/xlink" width="400" height="400" viewBox="0, 0, 400,400"><g id="svgg"><path id="path0" d="M180.800 112.274 C 180.250 112.365,178.371 112.790,176.624 113.219 C 174.877 113.649,172.970 114.000,172.386 114.000 C 171.802 114.000,170.998 114.360,170.600 114.800 C 170.202 115.240,169.643 115.600,169.359 115.600 C 168.786 115.600,164.914 118.759,162.919 120.854 C 150.684 133.705,151.839 133.198,134.814 133.206 C 118.119 133.214,110.481 133.710,107.400 134.986 C 106.080 135.533,104.550 135.988,104.000 135.997 C 103.450 136.006,102.576 136.461,102.058 137.007 C 101.540 137.553,100.909 138.000,100.655 138.000 C 99.913 138.000,94.000 143.932,94.000 144.678 C 94.000 144.904,93.578 145.710,93.063 146.469 C 92.548 147.228,91.999 148.644,91.844 149.614 C 91.689 150.585,91.255 151.718,90.881 152.132 C 90.246 152.833,90.200 156.805,90.200 210.542 L 90.200 268.200 91.100 269.785 C 91.595 270.656,92.003 271.826,92.007 272.385 C 92.011 272.943,92.551 274.192,93.207 275.160 C 93.863 276.128,94.400 277.064,94.400 277.240 C 94.400 277.662,99.129 282.400,99.550 282.400 C 99.729 282.400,100.399 282.850,101.038 283.400 C 101.677 283.949,102.487 284.399,102.838 284.400 C 103.189 284.400,103.782 284.738,104.155 285.151 C 104.551 285.588,105.655 286.010,106.799 286.162 C 107.879 286.305,109.537 286.774,110.482 287.203 C 113.146 288.412,290.067 288.448,292.849 287.240 C 293.812 286.822,295.410 286.349,296.400 286.189 C 297.390 286.029,298.629 285.561,299.154 285.149 C 299.679 284.737,300.444 284.400,300.854 284.400 C 301.264 284.400,301.950 284.050,302.379 283.621 C 302.807 283.193,303.716 282.554,304.399 282.200 C 305.082 281.847,305.739 281.304,305.858 280.994 C 305.977 280.684,306.392 280.330,306.780 280.206 C 307.169 280.083,307.805 279.277,308.193 278.415 C 308.582 277.552,309.148 276.752,309.450 276.636 C 309.753 276.520,310.000 276.094,310.000 275.690 C 310.000 275.286,310.425 274.379,310.945 273.674 C 311.522 272.892,311.989 271.556,312.143 270.245 C 312.282 269.064,312.753 267.310,313.189 266.349 C 314.395 263.690,314.440 157.207,313.236 154.556 C 312.825 153.652,312.363 152.168,312.210 151.258 C 311.759 148.589,307.980 141.600,306.987 141.600 C 306.694 141.600,306.343 141.249,306.206 140.820 C 306.070 140.392,305.625 139.935,305.216 139.805 C 304.808 139.676,304.373 139.307,304.250 138.987 C 304.127 138.666,303.315 138.119,302.444 137.771 C 301.574 137.423,300.773 136.907,300.665 136.626 C 300.557 136.344,299.735 135.996,298.839 135.853 C 297.943 135.709,296.513 135.229,295.662 134.785 C 293.551 133.685,285.598 133.224,268.524 133.210 C 261.222 133.205,255.150 133.042,255.030 132.849 C 254.911 132.656,253.964 132.285,252.926 132.023 C 251.888 131.762,250.795 131.200,250.497 130.774 C 250.199 130.348,249.727 130.000,249.448 130.000 C 248.903 130.000,245.800 126.892,239.867 120.406 C 238.113 118.489,234.431 115.600,233.741 115.600 C 233.588 115.600,233.115 115.285,232.690 114.900 C 232.265 114.515,230.810 113.991,229.458 113.735 C 228.106 113.479,225.830 112.990,224.400 112.649 C 221.940 112.062,184.062 111.736,180.800 112.274 M211.400 161.713 C 212.280 162.070,214.066 162.550,215.369 162.780 C 216.672 163.010,218.112 163.441,218.569 163.739 C 219.026 164.036,220.120 164.506,221.000 164.783 C 221.880 165.061,222.780 165.510,223.000 165.781 C 223.220 166.052,224.120 166.506,225.000 166.790 C 225.880 167.074,226.922 167.642,227.316 168.053 C 227.709 168.464,228.269 168.800,228.561 168.800 C 229.711 168.800,239.200 176.948,239.200 177.936 C 239.200 178.166,239.515 178.590,239.900 178.879 C 240.899 179.627,243.038 182.460,243.353 183.453 C 243.500 183.916,243.976 184.616,244.410 185.009 C 244.845 185.402,245.200 186.032,245.200 186.408 C 245.200 186.784,245.586 187.583,246.059 188.184 C 246.531 188.784,247.070 190.093,247.257 191.092 C 247.443 192.091,247.893 193.126,248.256 193.391 C 248.661 193.688,249.045 194.825,249.253 196.344 C 249.439 197.702,249.908 199.298,250.295 199.889 C 251.493 201.717,251.340 218.616,250.100 221.474 C 249.605 222.615,249.200 224.255,249.200 225.118 C 249.200 226.133,248.847 227.209,248.200 228.162 C 247.650 228.972,247.200 229.943,247.200 230.318 C 247.199 230.693,246.749 231.523,246.200 232.162 C 245.650 232.801,245.200 233.719,245.200 234.200 C 245.200 234.682,244.840 235.402,244.400 235.800 C 243.960 236.198,243.600 236.741,243.600 237.007 C 243.600 237.273,243.068 238.190,242.418 239.045 C 238.705 243.928,234.514 248.330,232.900 249.039 C 232.185 249.354,231.600 249.784,231.600 249.995 C 231.600 250.206,231.015 250.678,230.300 251.044 C 229.585 251.409,228.856 251.954,228.680 252.254 C 228.504 252.554,228.130 252.800,227.849 252.800 C 227.567 252.800,226.541 253.321,225.569 253.957 C 224.596 254.593,223.215 255.237,222.500 255.389 C 221.785 255.540,221.200 255.800,221.200 255.968 C 221.200 256.406,219.316 257.200,218.275 257.200 C 217.787 257.200,216.721 257.557,215.906 257.994 C 211.959 260.110,192.615 260.169,187.941 258.079 C 186.984 257.651,185.531 257.181,184.713 257.035 C 183.895 256.888,182.985 256.528,182.690 256.233 C 182.396 255.939,181.535 255.571,180.777 255.415 C 180.020 255.260,178.651 254.608,177.735 253.967 C 176.819 253.325,175.883 252.800,175.654 252.800 C 175.426 252.800,175.096 252.556,174.920 252.258 C 174.744 251.961,174.150 251.483,173.600 251.197 C 171.361 250.035,164.356 243.478,162.646 240.946 C 161.736 239.598,159.264 235.886,157.739 233.578 C 157.223 232.797,156.799 231.897,156.799 231.578 C 156.798 231.260,156.440 230.414,156.003 229.697 C 155.566 228.981,155.093 227.631,154.952 226.697 C 154.810 225.764,154.313 224.190,153.847 223.200 C 152.617 220.586,152.538 200.261,153.750 198.000 C 154.163 197.230,154.651 195.722,154.834 194.649 C 155.018 193.576,155.454 192.383,155.803 191.997 C 156.152 191.611,156.630 190.601,156.864 189.754 C 157.098 188.906,157.629 187.780,158.045 187.252 C 158.460 186.724,158.800 186.091,158.800 185.845 C 158.800 185.599,159.431 184.498,160.202 183.399 C 160.974 182.299,161.829 181.050,162.102 180.622 C 163.047 179.144,171.510 170.882,172.354 170.615 C 172.819 170.467,173.200 170.175,173.200 169.967 C 173.200 169.758,173.875 169.275,174.700 168.894 C 175.525 168.512,176.380 167.995,176.600 167.744 C 176.820 167.493,177.720 167.060,178.600 166.781 C 179.480 166.502,180.380 166.052,180.600 165.781 C 180.820 165.510,181.720 165.061,182.600 164.783 C 183.480 164.506,184.583 164.029,185.052 163.725 C 185.520 163.420,187.044 162.987,188.438 162.763 C 189.832 162.538,191.200 162.166,191.479 161.935 C 192.988 160.682,208.435 160.510,211.400 161.713 M274.934 165.884 C 279.820 169.246,281.000 171.410,281.000 177.011 C 281.000 185.673,275.779 190.410,267.000 189.713 C 263.108 189.404,261.661 188.468,257.365 183.480 C 255.724 181.576,255.707 172.948,257.340 171.010 C 257.813 170.448,258.650 169.453,259.200 168.797 C 262.248 165.161,264.357 164.340,269.956 164.608 C 272.824 164.746,273.548 164.931,274.934 165.884 M198.200 179.947 C 197.320 180.102,196.362 180.375,196.072 180.555 C 195.781 180.735,194.360 181.130,192.913 181.432 C 191.466 181.735,189.993 182.239,189.641 182.552 C 189.288 182.865,188.345 183.298,187.545 183.516 C 186.744 183.733,185.684 184.246,185.188 184.655 C 183.216 186.286,175.600 194.037,175.600 194.415 C 175.600 194.636,175.169 195.488,174.642 196.309 C 174.115 197.129,173.560 198.520,173.408 199.400 C 173.257 200.280,172.833 201.334,172.466 201.742 C 171.504 202.812,171.464 217.912,172.420 219.057 C 172.762 219.466,173.262 220.679,173.533 221.753 C 173.804 222.827,174.380 224.156,174.813 224.707 C 175.246 225.257,175.600 225.929,175.600 226.199 C 175.600 227.139,181.766 234.332,182.611 234.378 C 182.837 234.390,184.272 235.300,185.800 236.400 C 187.328 237.500,188.860 238.400,189.204 238.400 C 189.549 238.400,190.544 238.774,191.415 239.231 C 194.801 241.005,209.494 241.232,211.489 239.541 C 211.880 239.209,212.970 238.718,213.911 238.450 C 215.516 237.991,216.754 237.303,219.913 235.111 C 222.349 233.421,226.800 228.608,226.800 227.665 C 226.800 227.431,227.046 227.096,227.347 226.920 C 228.129 226.462,230.273 222.072,230.577 220.306 C 230.718 219.484,231.183 218.044,231.608 217.106 C 232.620 214.877,232.709 206.696,231.750 204.200 C 231.411 203.320,230.891 201.638,230.594 200.461 C 230.297 199.285,229.795 198.025,229.478 197.661 C 229.161 197.298,228.680 196.312,228.410 195.472 C 228.140 194.632,227.674 193.850,227.375 193.735 C 227.075 193.620,226.710 193.146,226.562 192.681 C 226.256 191.716,220.163 185.600,219.507 185.600 C 219.270 185.600,218.486 185.150,217.764 184.600 C 217.043 184.050,216.286 183.600,216.081 183.600 C 215.876 183.600,215.248 183.238,214.685 182.796 C 214.123 182.353,212.703 181.811,211.531 181.590 C 210.359 181.369,208.860 180.940,208.200 180.635 C 206.780 179.980,200.480 179.546,198.200 179.947 " stroke="none" fill="#fcfbfa" fill-rule="evenodd"></path><path id="path1" d="M170.333 0.384 C 170.260 0.594,167.545 0.892,164.300 1.044 C 158.928 1.297,158.400 1.388,158.400 2.061 C 158.400 2.676,158.080 2.801,156.500 2.803 C 152.557 2.811,150.400 3.253,150.400 4.056 C 150.400 4.689,150.080 4.800,148.256 4.800 C 144.365 4.800,142.400 5.221,142.400 6.054 C 142.400 6.649,142.095 6.801,140.900 6.804 C 137.977 6.813,136.400 7.250,136.400 8.052 C 136.400 8.654,136.097 8.800,134.850 8.800 C 132.291 8.800,130.710 9.258,130.500 10.061 C 130.355 10.614,129.929 10.800,128.803 10.800 C 126.289 10.800,124.709 11.263,124.500 12.061 C 124.361 12.591,123.934 12.800,122.986 12.800 C 121.159 12.800,120.400 13.158,120.400 14.021 C 120.400 14.614,120.033 14.780,118.500 14.878 C 116.893 14.981,116.581 15.136,116.475 15.879 C 116.369 16.621,116.056 16.777,114.475 16.879 C 112.893 16.981,112.580 17.138,112.475 17.879 C 112.369 18.621,112.056 18.777,110.475 18.879 C 108.893 18.981,108.580 19.138,108.475 19.879 C 108.369 20.621,108.056 20.777,106.475 20.879 C 104.893 20.981,104.580 21.138,104.475 21.879 C 104.369 22.621,104.056 22.777,102.475 22.879 C 100.894 22.981,100.580 23.138,100.475 23.878 C 100.373 24.599,100.049 24.778,98.675 24.878 C 97.388 24.972,96.909 25.208,96.605 25.900 C 96.337 26.511,95.866 26.800,95.138 26.800 C 93.543 26.800,92.800 27.195,92.800 28.043 C 92.800 28.582,92.515 28.800,91.808 28.800 C 91.088 28.800,90.748 29.069,90.570 29.779 C 90.365 30.592,90.043 30.778,88.662 30.879 C 87.288 30.979,86.978 31.156,86.872 31.900 C 86.782 32.538,86.474 32.800,85.816 32.800 C 85.164 32.800,84.813 33.092,84.641 33.777 C 84.437 34.593,84.116 34.774,82.698 34.877 C 81.287 34.979,80.978 35.152,80.872 35.900 C 80.780 36.551,80.476 36.800,79.772 36.800 C 79.002 36.800,78.800 37.008,78.800 37.800 C 78.800 38.600,78.600 38.800,77.800 38.800 C 77.000 38.800,76.800 39.000,76.800 39.800 C 76.800 40.600,76.600 40.800,75.800 40.800 C 75.000 40.800,74.800 41.000,74.800 41.800 C 74.800 42.733,74.667 42.800,72.800 42.800 C 70.933 42.800,70.800 42.867,70.800 43.800 C 70.800 44.600,70.600 44.800,69.800 44.800 C 69.000 44.800,68.800 45.000,68.800 45.800 C 68.800 46.600,68.600 46.800,67.800 46.800 C 67.000 46.800,66.800 47.000,66.800 47.800 C 66.800 48.600,66.600 48.800,65.800 48.800 C 65.000 48.800,64.800 49.000,64.800 49.800 C 64.800 50.600,64.600 50.800,63.800 50.800 C 63.000 50.800,62.800 51.000,62.800 51.800 C 62.800 52.600,62.600 52.800,61.800 52.800 C 61.000 52.800,60.800 53.000,60.800 53.800 C 60.800 54.600,60.600 54.800,59.800 54.800 C 59.000 54.800,58.800 55.000,58.800 55.800 C 58.800 56.600,58.600 56.800,57.800 56.800 C 57.000 56.800,56.800 57.000,56.800 57.800 C 56.800 58.600,56.600 58.800,55.800 58.800 C 55.000 58.800,54.800 59.000,54.800 59.800 C 54.800 60.600,54.600 60.800,53.800 60.800 C 53.000 60.800,52.800 61.000,52.800 61.800 C 52.800 62.600,52.600 62.800,51.800 62.800 C 51.000 62.800,50.800 63.000,50.800 63.800 C 50.800 64.600,50.600 64.800,49.800 64.800 C 49.000 64.800,48.800 65.000,48.800 65.800 C 48.800 66.600,48.600 66.800,47.800 66.800 C 47.000 66.800,46.800 67.000,46.800 67.800 C 46.800 68.600,46.600 68.800,45.800 68.800 C 45.000 68.800,44.800 69.000,44.800 69.800 C 44.800 70.600,44.600 70.800,43.800 70.800 C 42.867 70.800,42.800 70.933,42.800 72.800 C 42.800 74.667,42.733 74.800,41.800 74.800 C 41.000 74.800,40.800 75.000,40.800 75.800 C 40.800 76.600,40.600 76.800,39.800 76.800 C 39.000 76.800,38.800 77.000,38.800 77.800 C 38.800 78.600,38.600 78.800,37.800 78.800 C 36.885 78.800,36.800 78.950,36.800 80.557 C 36.800 82.097,36.677 82.344,35.800 82.564 C 35.179 82.720,34.800 83.099,34.800 83.564 C 34.800 84.030,34.421 84.408,33.800 84.564 C 33.069 84.748,32.800 85.083,32.800 85.808 C 32.800 86.599,32.598 86.800,31.800 86.800 C 30.884 86.800,30.800 86.949,30.800 88.572 C 30.800 90.105,30.679 90.362,29.900 90.472 C 29.134 90.581,28.982 90.879,28.879 92.475 C 28.777 94.056,28.621 94.369,27.879 94.475 C 27.355 94.550,26.953 94.928,26.884 95.412 C 26.820 95.859,26.370 96.399,25.884 96.612 C 25.210 96.908,24.971 97.398,24.878 98.675 C 24.778 100.049,24.599 100.373,23.878 100.475 C 23.138 100.580,22.981 100.894,22.879 102.475 C 22.777 104.056,22.621 104.369,21.879 104.475 C 21.138 104.580,20.981 104.893,20.879 106.475 C 20.777 108.056,20.621 108.369,19.879 108.475 C 19.138 108.580,18.981 108.893,18.879 110.475 C 18.777 112.056,18.621 112.369,17.879 112.475 C 17.138 112.580,16.981 112.893,16.879 114.475 C 16.777 116.056,16.621 116.369,15.879 116.475 C 15.136 116.581,14.981 116.893,14.878 118.500 C 14.780 120.033,14.614 120.400,14.021 120.400 C 13.059 120.400,12.800 121.165,12.800 124.005 C 12.800 126.126,12.716 126.356,11.900 126.472 C 11.132 126.581,10.982 126.879,10.878 128.500 C 10.780 130.030,10.614 130.400,10.025 130.400 C 9.144 130.400,8.813 131.460,8.805 134.300 C 8.801 136.082,8.687 136.400,8.052 136.400 C 7.250 136.400,6.813 137.977,6.804 140.900 C 6.801 142.094,6.648 142.400,6.056 142.400 C 5.253 142.400,4.811 144.557,4.803 148.500 C 4.801 150.084,4.676 150.400,4.057 150.400 C 3.231 150.400,2.800 152.956,2.800 157.859 C 2.800 160.064,2.702 160.400,2.060 160.400 C 1.310 160.400,0.808 164.263,0.802 170.100 C 0.801 171.145,0.620 172.000,0.400 172.000 C -0.144 172.000,-0.153 229.881,0.390 230.067 C 0.605 230.140,0.903 232.765,1.052 235.900 C 1.298 241.077,1.391 241.600,2.062 241.600 C 2.675 241.600,2.801 241.921,2.803 243.500 C 2.811 247.443,3.253 249.600,4.056 249.600 C 4.689 249.600,4.800 249.920,4.800 251.744 C 4.800 255.635,5.221 257.600,6.054 257.600 C 6.649 257.600,6.801 257.905,6.804 259.100 C 6.813 262.023,7.250 263.600,8.052 263.600 C 8.654 263.600,8.800 263.903,8.800 265.150 C 8.800 267.709,9.258 269.290,10.061 269.500 C 10.614 269.645,10.800 270.071,10.800 271.197 C 10.800 273.711,11.263 275.291,12.061 275.500 C 12.591 275.639,12.800 276.066,12.800 277.014 C 12.800 278.841,13.158 279.600,14.021 279.600 C 14.614 279.600,14.780 279.967,14.878 281.500 C 14.981 283.107,15.136 283.419,15.879 283.525 C 16.621 283.631,16.777 283.944,16.879 285.525 C 16.981 287.107,17.138 287.420,17.879 287.525 C 18.621 287.631,18.777 287.944,18.879 289.525 C 18.981 291.107,19.138 291.420,19.879 291.525 C 20.621 291.631,20.777 291.944,20.879 293.525 C 20.981 295.107,21.138 295.420,21.879 295.525 C 22.621 295.631,22.777 295.944,22.879 297.525 C 22.981 299.106,23.138 299.420,23.878 299.525 C 24.599 299.627,24.778 299.951,24.878 301.325 C 24.972 302.612,25.208 303.091,25.900 303.395 C 26.511 303.663,26.800 304.134,26.800 304.862 C 26.800 306.443,27.194 307.200,28.016 307.200 C 28.516 307.200,28.787 307.548,28.873 308.300 C 28.963 309.078,29.257 309.437,29.878 309.525 C 30.599 309.627,30.778 309.951,30.878 311.325 C 30.978 312.698,31.158 313.022,31.876 313.125 C 32.489 313.212,32.789 313.572,32.876 314.325 C 32.963 315.078,33.263 315.437,33.878 315.525 C 34.599 315.627,34.778 315.951,34.878 317.325 C 34.979 318.713,35.154 319.022,35.900 319.128 C 36.551 319.220,36.800 319.524,36.800 320.228 C 36.800 320.998,37.008 321.200,37.800 321.200 C 38.600 321.200,38.800 321.400,38.800 322.200 C 38.800 323.000,39.000 323.200,39.800 323.200 C 40.600 323.200,40.800 323.400,40.800 324.200 C 40.800 325.000,41.000 325.200,41.800 325.200 C 42.733 325.200,42.800 325.333,42.800 327.200 C 42.800 329.067,42.867 329.200,43.800 329.200 C 44.600 329.200,44.800 329.400,44.800 330.200 C 44.800 331.000,45.000 331.200,45.800 331.200 C 46.600 331.200,46.800 331.400,46.800 332.200 C 46.800 333.000,47.000 333.200,47.800 333.200 C 48.600 333.200,48.800 333.400,48.800 334.200 C 48.800 335.000,49.000 335.200,49.800 335.200 C 50.600 335.200,50.800 335.400,50.800 336.200 C 50.800 337.000,51.000 337.200,51.800 337.200 C 52.600 337.200,52.800 337.400,52.800 338.200 C 52.800 339.000,53.000 339.200,53.800 339.200 C 54.600 339.200,54.800 339.400,54.800 340.200 C 54.800 341.000,55.000 341.200,55.800 341.200 C 56.600 341.200,56.800 341.400,56.800 342.200 C 56.800 343.000,57.000 343.200,57.800 343.200 C 58.600 343.200,58.800 343.400,58.800 344.200 C 58.800 345.000,59.000 345.200,59.800 345.200 C 60.600 345.200,60.800 345.400,60.800 346.200 C 60.800 347.000,61.000 347.200,61.800 347.200 C 62.600 347.200,62.800 347.400,62.800 348.200 C 62.800 349.000,63.000 349.200,63.800 349.200 C 64.600 349.200,64.800 349.400,64.800 350.200 C 64.800 351.000,65.000 351.200,65.800 351.200 C 66.600 351.200,66.800 351.400,66.800 352.200 C 66.800 353.000,67.000 353.200,67.800 353.200 C 68.600 353.200,68.800 353.400,68.800 354.200 C 68.800 355.000,69.000 355.200,69.800 355.200 C 70.600 355.200,70.800 355.400,70.800 356.200 C 70.800 357.133,70.933 357.200,72.800 357.200 C 74.667 357.200,74.800 357.267,74.800 358.200 C 74.800 359.000,75.000 359.200,75.800 359.200 C 76.600 359.200,76.800 359.400,76.800 360.200 C 76.800 361.000,77.000 361.200,77.800 361.200 C 78.600 361.200,78.800 361.400,78.800 362.200 C 78.800 363.115,78.950 363.200,80.557 363.200 C 82.097 363.200,82.344 363.323,82.564 364.200 C 82.720 364.821,83.099 365.200,83.564 365.200 C 84.030 365.200,84.408 365.579,84.564 366.200 C 84.748 366.931,85.083 367.200,85.808 367.200 C 86.599 367.200,86.800 367.402,86.800 368.200 C 86.800 369.116,86.949 369.200,88.572 369.200 C 90.105 369.200,90.362 369.321,90.472 370.100 C 90.581 370.866,90.879 371.018,92.475 371.121 C 94.056 371.223,94.369 371.379,94.475 372.121 C 94.550 372.645,94.928 373.047,95.412 373.116 C 95.859 373.180,96.399 373.630,96.612 374.116 C 96.908 374.790,97.398 375.029,98.675 375.122 C 100.049 375.222,100.373 375.401,100.475 376.122 C 100.580 376.862,100.894 377.019,102.475 377.121 C 104.056 377.223,104.369 377.379,104.475 378.121 C 104.580 378.862,104.893 379.019,106.475 379.121 C 108.056 379.223,108.369 379.379,108.475 380.121 C 108.580 380.862,108.893 381.019,110.475 381.121 C 112.056 381.223,112.369 381.379,112.475 382.121 C 112.580 382.862,112.893 383.019,114.475 383.121 C 116.056 383.223,116.369 383.379,116.475 384.121 C 116.581 384.864,116.893 385.019,118.500 385.122 C 120.033 385.220,120.400 385.386,120.400 385.979 C 120.400 386.941,121.165 387.200,124.005 387.200 C 126.126 387.200,126.356 387.284,126.472 388.100 C 126.581 388.868,126.879 389.018,128.500 389.122 C 130.033 389.220,130.400 389.386,130.400 389.979 C 130.400 390.943,131.165 391.200,134.033 391.200 C 136.089 391.200,136.400 391.300,136.400 391.957 C 136.400 392.943,137.150 393.200,140.033 393.200 C 142.078 393.200,142.400 393.302,142.400 393.948 C 142.400 394.825,144.003 395.189,147.900 395.196 C 150.085 395.199,150.400 395.296,150.400 395.957 C 150.400 397.039,151.128 397.200,156.005 397.200 C 160.201 397.200,160.349 397.230,160.472 398.100 C 160.597 398.979,160.732 399.003,166.300 399.111 C 169.650 399.176,172.000 399.382,172.000 399.611 C 172.000 399.859,182.479 400.000,201.000 400.000 C 220.067 400.000,230.000 399.863,230.000 399.600 C 230.000 399.357,231.783 399.200,234.550 399.200 C 240.203 399.200,241.600 398.952,241.600 397.950 C 241.600 397.276,241.941 397.200,244.967 397.200 C 248.858 397.200,249.600 397.001,249.600 395.957 C 249.600 395.288,249.918 395.200,252.350 395.200 C 256.208 395.200,257.600 394.869,257.600 393.950 C 257.600 393.301,257.919 393.200,259.967 393.200 C 262.850 393.200,263.600 392.943,263.600 391.957 C 263.600 391.345,263.896 391.200,265.150 391.200 C 267.709 391.200,269.290 390.742,269.500 389.939 C 269.645 389.386,270.071 389.200,271.197 389.200 C 273.711 389.200,275.291 388.737,275.500 387.939 C 275.639 387.409,276.066 387.200,277.014 387.200 C 278.841 387.200,279.600 386.842,279.600 385.979 C 279.600 385.386,279.967 385.220,281.500 385.122 C 283.107 385.019,283.419 384.864,283.525 384.121 C 283.631 383.379,283.944 383.223,285.525 383.121 C 287.107 383.019,287.420 382.862,287.525 382.121 C 287.631 381.379,287.944 381.223,289.525 381.121 C 291.107 381.019,291.420 380.862,291.525 380.121 C 291.631 379.379,291.944 379.223,293.525 379.121 C 295.107 379.019,295.420 378.862,295.525 378.121 C 295.631 377.379,295.944 377.223,297.525 377.121 C 299.106 377.019,299.420 376.862,299.525 376.122 C 299.627 375.401,299.951 375.222,301.325 375.122 C 302.612 375.028,303.091 374.792,303.395 374.100 C 303.663 373.489,304.134 373.200,304.862 373.200 C 306.443 373.200,307.200 372.806,307.200 371.984 C 307.200 371.484,307.548 371.213,308.300 371.127 C 309.078 371.037,309.437 370.743,309.525 370.122 C 309.627 369.401,309.951 369.222,311.325 369.122 C 312.698 369.022,313.022 368.842,313.125 368.124 C 313.212 367.511,313.572 367.211,314.325 367.124 C 315.078 367.037,315.437 366.737,315.525 366.122 C 315.627 365.401,315.951 365.222,317.325 365.122 C 318.713 365.021,319.022 364.846,319.128 364.100 C 319.220 363.449,319.524 363.200,320.228 363.200 C 320.998 363.200,321.200 362.992,321.200 362.200 C 321.200 361.400,321.400 361.200,322.200 361.200 C 323.000 361.200,323.200 361.000,323.200 360.200 C 323.200 359.400,323.400 359.200,324.200 359.200 C 325.000 359.200,325.200 359.000,325.200 358.200 C 325.200 357.267,325.333 357.200,327.200 357.200 C 329.067 357.200,329.200 357.133,329.200 356.200 C 329.200 355.400,329.400 355.200,330.200 355.200 C 331.000 355.200,331.200 355.000,331.200 354.200 C 331.200 353.400,331.400 353.200,332.200 353.200 C 333.000 353.200,333.200 353.000,333.200 352.200 C 333.200 351.400,333.400 351.200,334.200 351.200 C 335.000 351.200,335.200 351.000,335.200 350.200 C 335.200 349.400,335.400 349.200,336.200 349.200 C 337.000 349.200,337.200 349.000,337.200 348.200 C 337.200 347.400,337.400 347.200,338.200 347.200 C 339.000 347.200,339.200 347.000,339.200 346.200 C 339.200 345.400,339.400 345.200,340.200 345.200 C 341.000 345.200,341.200 345.000,341.200 344.200 C 341.200 343.400,341.400 343.200,342.200 343.200 C 343.000 343.200,343.200 343.000,343.200 342.200 C 343.200 341.400,343.400 341.200,344.200 341.200 C 345.000 341.200,345.200 341.000,345.200 340.200 C 345.200 339.400,345.400 339.200,346.200 339.200 C 347.000 339.200,347.200 339.000,347.200 338.200 C 347.200 337.400,347.400 337.200,348.200 337.200 C 349.000 337.200,349.200 337.000,349.200 336.200 C 349.200 335.400,349.400 335.200,350.200 335.200 C 351.000 335.200,351.200 335.000,351.200 334.200 C 351.200 333.400,351.400 333.200,352.200 333.200 C 353.000 333.200,353.200 333.000,353.200 332.200 C 353.200 331.400,353.400 331.200,354.200 331.200 C 355.000 331.200,355.200 331.000,355.200 330.200 C 355.200 329.400,355.400 329.200,356.200 329.200 C 357.133 329.200,357.200 329.067,357.200 327.200 C 357.200 325.333,357.267 325.200,358.200 325.200 C 359.000 325.200,359.200 325.000,359.200 324.200 C 359.200 323.400,359.400 323.200,360.200 323.200 C 361.000 323.200,361.200 323.000,361.200 322.200 C 361.200 321.400,361.400 321.200,362.200 321.200 C 363.119 321.200,363.200 321.053,363.200 319.400 C 363.200 317.747,363.281 317.600,364.200 317.600 C 364.992 317.600,365.200 317.398,365.200 316.628 C 365.200 315.924,365.449 315.620,366.100 315.528 C 366.665 315.448,367.046 315.079,367.123 314.538 C 367.198 314.013,367.628 313.579,368.223 313.430 C 369.074 313.216,369.200 312.958,369.200 311.420 C 369.200 309.895,369.322 309.638,370.100 309.528 C 370.868 309.419,371.018 309.121,371.122 307.500 C 371.232 305.785,371.339 305.600,372.222 305.600 C 372.971 305.600,373.200 305.388,373.200 304.695 C 373.200 304.140,373.548 303.637,374.100 303.395 C 374.792 303.091,375.028 302.612,375.122 301.325 C 375.222 299.951,375.401 299.627,376.122 299.525 C 376.862 299.420,377.019 299.106,377.121 297.525 C 377.223 295.944,377.379 295.631,378.121 295.525 C 378.862 295.420,379.019 295.107,379.121 293.525 C 379.223 291.944,379.379 291.631,380.121 291.525 C 380.862 291.420,381.019 291.107,381.121 289.525 C 381.223 287.944,381.379 287.631,382.121 287.525 C 382.862 287.420,383.019 287.107,383.121 285.525 C 383.223 283.944,383.379 283.631,384.121 283.525 C 384.864 283.419,385.019 283.107,385.122 281.500 C 385.220 279.967,385.386 279.600,385.979 279.600 C 386.941 279.600,387.200 278.835,387.200 275.995 C 387.200 273.874,387.284 273.644,388.100 273.528 C 388.868 273.419,389.018 273.121,389.122 271.500 C 389.220 269.967,389.386 269.600,389.979 269.600 C 390.943 269.600,391.200 268.835,391.200 265.967 C 391.200 263.911,391.300 263.600,391.957 263.600 C 392.943 263.600,393.200 262.850,393.200 259.967 C 393.200 257.919,393.301 257.600,393.950 257.600 C 394.869 257.600,395.200 256.208,395.200 252.350 C 395.200 249.918,395.288 249.600,395.957 249.600 C 397.032 249.600,397.200 248.869,397.200 244.195 C 397.200 240.207,397.233 240.051,398.100 239.928 C 398.981 239.803,399.002 239.676,399.111 233.900 C 399.176 230.417,399.381 228.000,399.611 228.000 C 399.859 228.000,400.000 217.606,400.000 199.200 C 400.000 180.267,399.863 170.400,399.600 170.400 C 399.356 170.400,399.200 168.550,399.200 165.650 C 399.200 159.796,398.959 158.400,397.950 158.400 C 397.276 158.400,397.200 158.059,397.200 155.033 C 397.200 151.142,397.001 150.400,395.957 150.400 C 395.296 150.400,395.199 150.085,395.196 147.900 C 395.189 144.003,394.825 142.400,393.948 142.400 C 393.313 142.400,393.199 142.082,393.195 140.300 C 393.187 137.435,392.858 136.400,391.953 136.400 C 391.345 136.400,391.200 136.101,391.200 134.850 C 391.200 132.291,390.742 130.710,389.939 130.500 C 389.386 130.355,389.200 129.929,389.200 128.803 C 389.200 126.289,388.737 124.709,387.939 124.500 C 387.409 124.361,387.200 123.934,387.200 122.986 C 387.200 121.159,386.842 120.400,385.979 120.400 C 385.386 120.400,385.220 120.033,385.122 118.500 C 385.019 116.893,384.864 116.581,384.121 116.475 C 383.379 116.369,383.223 116.056,383.121 114.475 C 383.019 112.893,382.862 112.580,382.121 112.475 C 381.379 112.369,381.223 112.056,381.121 110.475 C 381.019 108.893,380.862 108.580,380.121 108.475 C 379.379 108.369,379.223 108.056,379.121 106.475 C 379.019 104.893,378.862 104.580,378.121 104.475 C 377.379 104.369,377.223 104.056,377.121 102.475 C 377.019 100.894,376.862 100.580,376.122 100.475 C 375.401 100.373,375.222 100.049,375.122 98.675 C 375.028 97.388,374.792 96.909,374.100 96.605 C 373.489 96.337,373.200 95.866,373.200 95.138 C 373.200 93.543,372.805 92.800,371.957 92.800 C 371.418 92.800,371.200 92.515,371.200 91.808 C 371.200 91.088,370.931 90.748,370.221 90.570 C 369.408 90.365,369.222 90.043,369.121 88.662 C 369.021 87.288,368.844 86.978,368.100 86.872 C 367.462 86.782,367.200 86.474,367.200 85.816 C 367.200 85.164,366.908 84.813,366.223 84.641 C 365.407 84.437,365.226 84.116,365.123 82.698 C 365.021 81.287,364.848 80.978,364.100 80.872 C 363.449 80.780,363.200 80.476,363.200 79.772 C 363.200 79.002,362.992 78.800,362.200 78.800 C 361.400 78.800,361.200 78.600,361.200 77.800 C 361.200 77.000,361.000 76.800,360.200 76.800 C 359.400 76.800,359.200 76.600,359.200 75.800 C 359.200 75.000,359.000 74.800,358.200 74.800 C 357.267 74.800,357.200 74.667,357.200 72.800 C 357.200 70.933,357.133 70.800,356.200 70.800 C 355.400 70.800,355.200 70.600,355.200 69.800 C 355.200 69.000,355.000 68.800,354.200 68.800 C 353.400 68.800,353.200 68.600,353.200 67.800 C 353.200 67.000,353.000 66.800,352.200 66.800 C 351.400 66.800,351.200 66.600,351.200 65.800 C 351.200 65.000,351.000 64.800,350.200 64.800 C 349.400 64.800,349.200 64.600,349.200 63.800 C 349.200 63.000,349.000 62.800,348.200 62.800 C 347.400 62.800,347.200 62.600,347.200 61.800 C 347.200 61.000,347.000 60.800,346.200 60.800 C 345.400 60.800,345.200 60.600,345.200 59.800 C 345.200 59.000,345.000 58.800,344.200 58.800 C 343.400 58.800,343.200 58.600,343.200 57.800 C 343.200 57.000,343.000 56.800,342.200 56.800 C 341.400 56.800,341.200 56.600,341.200 55.800 C 341.200 55.000,341.000 54.800,340.200 54.800 C 339.400 54.800,339.200 54.600,339.200 53.800 C 339.200 53.000,339.000 52.800,338.200 52.800 C 337.400 52.800,337.200 52.600,337.200 51.800 C 337.200 51.000,337.000 50.800,336.200 50.800 C 335.400 50.800,335.200 50.600,335.200 49.800 C 335.200 49.000,335.000 48.800,334.200 48.800 C 333.400 48.800,333.200 48.600,333.200 47.800 C 333.200 47.000,333.000 46.800,332.200 46.800 C 331.400 46.800,331.200 46.600,331.200 45.800 C 331.200 45.000,331.000 44.800,330.200 44.800 C 329.400 44.800,329.200 44.600,329.200 43.800 C 329.200 42.867,329.067 42.800,327.200 42.800 C 325.333 42.800,325.200 42.733,325.200 41.800 C 325.200 41.000,325.000 40.800,324.200 40.800 C 323.400 40.800,323.200 40.600,323.200 39.800 C 323.200 39.000,323.000 38.800,322.200 38.800 C 321.400 38.800,321.200 38.600,321.200 37.800 C 321.200 36.884,321.051 36.800,319.428 36.800 C 317.895 36.800,317.638 36.679,317.528 35.900 C 317.447 35.330,317.079 34.954,316.525 34.875 C 315.979 34.798,315.602 34.421,315.525 33.875 C 315.446 33.322,315.070 32.953,314.501 32.872 C 313.940 32.793,313.510 32.379,313.357 31.772 C 313.146 30.930,312.882 30.800,311.384 30.800 C 309.896 30.800,309.638 30.675,309.528 29.900 C 309.419 29.134,309.121 28.982,307.525 28.879 C 305.944 28.777,305.631 28.621,305.525 27.879 C 305.450 27.355,305.072 26.953,304.588 26.884 C 304.141 26.820,303.601 26.370,303.388 25.884 C 303.092 25.210,302.602 24.971,301.325 24.878 C 299.951 24.778,299.627 24.599,299.525 23.878 C 299.420 23.138,299.106 22.981,297.525 22.879 C 295.944 22.777,295.631 22.621,295.525 21.879 C 295.420 21.138,295.107 20.981,293.525 20.879 C 291.944 20.777,291.631 20.621,291.525 19.879 C 291.420 19.138,291.107 18.981,289.525 18.879 C 287.944 18.777,287.631 18.621,287.525 17.879 C 287.420 17.138,287.107 16.981,285.525 16.879 C 283.944 16.777,283.631 16.621,283.525 15.879 C 283.419 15.136,283.107 14.981,281.500 14.878 C 279.967 14.780,279.600 14.614,279.600 14.021 C 279.600 13.059,278.835 12.800,275.995 12.800 C 273.874 12.800,273.644 12.716,273.528 11.900 C 273.419 11.132,273.121 10.982,271.500 10.878 C 269.970 10.780,269.600 10.614,269.600 10.025 C 269.600 9.144,268.540 8.813,265.700 8.805 C 263.918 8.801,263.600 8.687,263.600 8.052 C 263.600 7.250,262.023 6.813,259.100 6.804 C 257.906 6.801,257.600 6.648,257.600 6.056 C 257.600 5.253,255.443 4.811,251.500 4.803 C 249.916 4.801,249.600 4.676,249.600 4.057 C 249.600 3.244,247.051 2.800,242.388 2.800 C 240.496 2.800,240.060 2.671,239.901 2.064 C 239.707 1.322,235.633 0.808,229.900 0.802 C 228.855 0.801,228.000 0.620,228.000 0.400 C 228.000 -0.138,170.520 -0.154,170.333 0.384 M230.000 111.851 C 230.770 112.320,232.070 112.822,232.889 112.967 C 233.707 113.113,234.607 113.559,234.889 113.959 C 235.170 114.358,235.760 114.800,236.200 114.939 C 237.149 115.241,241.600 119.339,241.600 119.911 C 241.600 120.129,242.050 120.603,242.600 120.963 C 243.150 121.324,243.600 121.884,243.600 122.209 C 243.600 122.534,243.874 122.800,244.209 122.800 C 244.543 122.800,245.022 123.250,245.273 123.800 C 245.523 124.350,245.974 124.800,246.274 124.800 C 246.574 124.800,246.991 125.250,247.200 125.800 C 247.409 126.350,247.859 126.800,248.199 126.800 C 248.539 126.800,249.022 127.250,249.273 127.800 C 249.523 128.350,250.026 128.800,250.389 128.800 C 250.752 128.800,251.484 129.205,252.014 129.700 C 252.977 130.597,253.038 130.601,270.790 130.852 C 287.576 131.090,289.717 131.237,292.526 132.353 C 293.145 132.599,294.334 132.800,295.166 132.800 C 296.902 132.800,299.200 133.506,299.200 134.039 C 299.200 134.238,299.521 134.400,299.913 134.400 C 301.740 134.400,311.200 142.609,311.200 144.194 C 311.200 144.459,311.556 144.999,311.992 145.393 C 312.428 145.787,312.898 146.760,313.036 147.555 C 313.175 148.350,313.674 149.630,314.144 150.400 L 315.000 151.800 315.000 210.400 L 315.000 269.000 314.100 270.447 C 313.605 271.243,313.200 272.344,313.200 272.893 C 313.200 273.443,312.834 274.358,312.386 274.927 C 311.938 275.497,311.379 276.515,311.144 277.190 C 310.908 277.865,310.375 278.599,309.958 278.823 C 309.541 279.046,309.200 279.423,309.200 279.661 C 309.200 279.899,308.501 280.793,307.647 281.647 C 306.793 282.501,305.899 283.200,305.661 283.200 C 305.423 283.200,305.049 283.535,304.829 283.945 C 304.610 284.355,303.839 284.928,303.115 285.218 C 302.392 285.508,301.371 286.073,300.846 286.473 C 300.321 286.873,299.566 287.200,299.167 287.200 C 298.769 287.200,297.596 287.650,296.562 288.200 L 294.681 289.200 201.840 289.199 C 110.707 289.197,108.977 289.183,107.729 288.422 C 107.030 287.996,105.798 287.523,104.992 287.372 C 103.629 287.116,99.329 284.815,98.824 284.071 C 98.701 283.890,98.268 283.619,97.862 283.469 C 97.456 283.319,97.034 282.854,96.925 282.435 C 96.816 282.016,96.384 281.584,95.965 281.475 C 95.546 281.366,95.087 280.971,94.944 280.598 C 94.801 280.225,94.260 279.496,93.742 278.978 C 93.224 278.460,92.800 277.758,92.800 277.418 C 92.800 277.078,92.538 276.800,92.219 276.800 C 91.727 276.800,90.810 274.638,90.802 273.462 C 90.801 273.276,90.443 272.623,90.007 272.010 C 89.472 271.259,89.135 269.938,88.970 267.949 C 88.835 266.327,88.427 264.370,88.063 263.600 C 86.631 260.576,86.938 158.504,88.387 155.648 C 88.568 155.292,88.901 153.769,89.128 152.264 C 89.355 150.760,89.809 149.230,90.136 148.864 C 90.464 148.499,90.860 147.513,91.016 146.672 C 91.172 145.832,91.637 144.934,92.050 144.676 C 92.462 144.418,92.800 143.894,92.800 143.511 C 92.800 142.224,97.505 137.454,99.500 136.719 C 100.215 136.455,100.800 136.018,100.800 135.747 C 100.800 135.259,101.125 135.115,103.340 134.619 C 103.967 134.479,104.957 134.029,105.540 133.620 C 106.151 133.191,107.692 132.762,109.175 132.609 C 110.591 132.463,112.301 132.052,112.975 131.696 C 114.031 131.138,116.682 131.018,132.201 130.825 C 149.463 130.609,150.238 130.567,151.106 129.800 C 151.603 129.360,155.049 126.000,158.763 122.332 C 162.476 118.665,166.119 115.355,166.857 114.976 C 167.596 114.597,168.629 113.952,169.154 113.543 C 169.679 113.135,170.564 112.800,171.122 112.800 C 171.680 112.800,172.459 112.509,172.852 112.153 C 174.182 110.949,176.155 110.868,202.400 110.934 C 228.364 110.999,228.613 111.008,230.000 111.851 M199.200 162.569 C 198.093 163.164,192.500 164.000,189.633 164.000 C 188.226 164.000,187.675 164.188,187.293 164.800 C 186.952 165.346,186.360 165.600,185.427 165.600 C 184.554 165.600,183.633 165.961,182.873 166.600 C 182.219 167.150,181.319 167.600,180.873 167.600 C 180.427 167.600,179.527 168.050,178.873 168.600 C 178.219 169.150,177.338 169.600,176.914 169.600 C 176.491 169.600,175.749 170.055,175.265 170.611 C 174.781 171.168,173.865 171.727,173.228 171.854 C 172.537 171.993,171.988 172.403,171.865 172.873 C 171.752 173.305,171.286 173.757,170.830 173.876 C 170.373 173.996,170.000 174.346,170.000 174.655 C 170.000 174.964,169.570 175.413,169.044 175.653 C 168.518 175.892,167.892 176.518,167.653 177.044 C 167.413 177.570,166.964 178.000,166.655 178.000 C 166.346 178.000,165.996 178.373,165.876 178.830 C 165.757 179.286,165.286 179.757,164.830 179.876 C 164.373 179.996,164.000 180.408,164.000 180.792 C 164.000 181.460,162.554 183.631,160.888 185.463 C 160.456 185.938,159.985 186.955,159.841 187.723 C 159.697 188.491,159.315 189.339,158.992 189.606 C 158.670 189.874,158.210 190.837,157.970 191.747 C 157.731 192.656,157.237 193.850,156.874 194.400 C 156.510 194.950,155.991 196.890,155.721 198.711 C 155.451 200.532,154.953 202.417,154.615 202.900 C 153.585 204.370,153.750 216.411,154.833 218.798 C 155.281 219.786,155.751 221.766,155.876 223.198 C 156.021 224.846,156.363 226.093,156.809 226.600 C 157.197 227.040,157.641 228.000,157.796 228.734 C 158.114 230.237,159.976 233.935,161.194 235.483 C 161.637 236.047,162.000 236.773,162.000 237.096 C 162.000 237.420,162.450 238.039,163.000 238.471 C 163.550 238.904,164.000 239.424,164.000 239.626 C 164.000 240.133,172.277 248.400,172.784 248.400 C 173.009 248.400,173.418 248.760,173.693 249.200 C 173.968 249.640,174.503 250.000,174.882 250.000 C 175.262 250.000,176.187 250.540,176.939 251.200 C 177.691 251.860,178.497 252.400,178.730 252.400 C 178.964 252.400,179.395 252.743,179.688 253.162 C 180.027 253.646,180.948 254.029,182.211 254.210 C 183.305 254.367,184.565 254.828,185.011 255.234 C 185.507 255.686,186.748 256.073,188.211 256.233 C 189.525 256.376,191.230 256.864,192.000 257.316 C 193.974 258.478,209.909 258.569,211.171 257.426 C 211.635 257.006,213.145 256.572,215.012 256.323 C 217.022 256.054,218.340 255.660,218.815 255.185 C 219.215 254.785,220.365 254.334,221.371 254.183 C 222.377 254.033,223.200 253.740,223.200 253.534 C 223.200 253.328,223.875 252.880,224.700 252.538 C 225.525 252.196,226.529 251.568,226.931 251.142 C 227.332 250.716,228.182 250.264,228.819 250.136 C 229.461 250.008,230.083 249.570,230.215 249.153 C 230.346 248.740,230.891 248.292,231.427 248.158 C 231.962 248.023,232.400 247.657,232.400 247.344 C 232.400 247.031,232.701 246.659,233.069 246.518 C 233.926 246.189,238.400 241.729,238.400 241.203 C 238.400 240.985,238.760 240.582,239.200 240.307 C 239.640 240.032,240.000 239.608,240.000 239.365 C 240.000 239.122,240.383 238.490,240.851 237.961 C 241.319 237.433,241.954 236.407,242.263 235.683 C 242.572 234.958,243.076 234.269,243.383 234.151 C 243.689 234.034,244.060 233.230,244.206 232.366 C 244.352 231.502,244.791 230.572,245.181 230.298 C 245.573 230.023,246.101 228.822,246.359 227.616 C 246.617 226.415,247.075 225.155,247.379 224.816 C 247.682 224.477,248.139 222.400,248.396 220.200 C 248.652 218.000,249.117 215.677,249.431 215.039 C 250.190 213.490,250.163 208.563,249.384 206.354 C 249.045 205.393,248.573 202.715,248.336 200.403 C 248.032 197.433,247.699 195.965,247.202 195.400 C 246.815 194.960,246.371 193.886,246.215 193.014 C 246.059 192.141,245.613 190.971,245.224 190.414 C 244.835 189.856,244.405 188.950,244.269 188.400 C 244.132 187.850,243.566 186.877,243.010 186.238 C 242.455 185.599,242.000 184.828,242.000 184.525 C 242.000 184.223,241.737 183.874,241.415 183.750 C 241.094 183.627,240.728 183.204,240.603 182.810 C 240.478 182.416,239.886 181.537,239.288 180.858 C 237.163 178.445,236.000 176.884,236.000 176.445 C 236.000 176.200,235.726 176.000,235.391 176.000 C 235.057 176.000,234.578 175.550,234.327 175.000 C 234.077 174.450,233.602 174.000,233.273 174.000 C 232.612 174.000,228.400 170.885,228.400 170.396 C 228.400 170.227,227.766 169.970,226.991 169.825 C 226.216 169.679,225.361 169.205,225.091 168.770 C 224.804 168.308,223.964 167.878,223.068 167.734 C 222.217 167.597,221.331 167.158,221.073 166.745 C 220.772 166.263,219.920 165.911,218.645 165.742 C 217.565 165.598,216.348 165.148,215.941 164.741 C 215.466 164.266,214.624 164.000,213.597 164.000 C 211.509 164.000,204.386 162.927,203.015 162.406 C 201.596 161.866,200.414 161.917,199.200 162.569 M264.810 166.588 C 264.541 166.912,263.710 167.398,262.962 167.668 C 262.215 167.938,261.503 168.474,261.381 168.859 C 261.259 169.244,260.821 169.666,260.407 169.798 C 259.994 169.929,259.543 170.549,259.405 171.177 C 259.267 171.804,258.805 172.634,258.377 173.021 C 257.368 173.934,257.201 180.561,258.178 180.936 C 258.495 181.058,258.974 181.887,259.241 182.779 C 259.508 183.670,259.958 184.400,260.241 184.400 C 260.523 184.400,261.016 184.772,261.334 185.228 C 263.099 187.747,270.602 189.409,272.284 187.653 C 272.678 187.242,273.675 186.688,274.500 186.422 C 275.361 186.144,276.000 185.680,276.000 185.332 C 276.000 184.998,276.354 184.633,276.787 184.519 C 277.219 184.406,277.690 183.928,277.833 183.457 C 277.976 182.986,278.522 182.027,279.046 181.327 C 280.450 179.453,280.425 175.062,279.000 172.962 C 278.450 172.151,278.000 171.174,278.000 170.791 C 278.000 170.407,277.627 169.996,277.170 169.876 C 276.714 169.757,276.244 169.290,276.126 168.840 C 275.983 168.292,275.458 167.935,274.545 167.763 C 273.793 167.622,272.997 167.168,272.775 166.753 C 272.242 165.757,265.614 165.619,264.810 166.588 M211.232 179.560 C 211.857 180.022,212.842 180.400,213.422 180.400 C 214.487 180.400,216.800 181.533,216.800 182.054 C 216.800 182.210,217.341 182.455,218.003 182.601 C 218.665 182.746,219.380 183.190,219.593 183.587 C 219.805 183.983,220.404 184.415,220.923 184.545 C 221.964 184.806,227.600 190.281,227.600 191.031 C 227.600 191.290,227.881 191.735,228.224 192.020 C 228.567 192.305,229.169 193.182,229.561 193.969 C 230.300 195.451,230.858 196.534,232.460 199.600 C 233.852 202.265,233.925 218.958,232.551 220.467 C 232.077 220.989,231.604 222.188,231.478 223.186 C 231.354 224.168,230.990 225.164,230.668 225.400 C 230.346 225.635,229.811 226.451,229.479 227.214 C 229.147 227.976,228.139 229.388,227.238 230.351 C 226.337 231.313,225.600 232.215,225.600 232.354 C 225.600 232.493,224.863 233.235,223.963 234.003 C 223.063 234.772,221.938 235.767,221.463 236.216 C 220.279 237.337,216.643 239.600,216.027 239.600 C 215.750 239.600,214.993 239.978,214.345 240.439 C 213.590 240.977,212.273 241.360,210.687 241.504 C 209.323 241.627,207.666 242.059,207.004 242.463 C 205.016 243.675,195.708 243.325,195.274 242.021 C 195.197 241.790,194.365 241.600,193.426 241.600 C 191.551 241.600,189.200 240.919,189.200 240.376 C 189.200 240.186,188.506 239.844,187.659 239.616 C 186.811 239.388,185.632 238.751,185.038 238.200 C 184.445 237.650,183.704 237.200,183.393 237.200 C 183.083 237.200,182.635 236.840,182.400 236.400 C 182.165 235.960,181.704 235.600,181.376 235.600 C 181.048 235.600,180.609 235.150,180.400 234.600 C 180.191 234.050,179.774 233.600,179.474 233.600 C 179.174 233.600,178.723 233.150,178.473 232.600 C 178.222 232.050,177.747 231.600,177.416 231.600 C 177.086 231.600,176.704 231.156,176.568 230.614 C 176.432 230.072,175.996 229.526,175.600 229.400 C 175.204 229.274,174.764 228.712,174.624 228.152 C 174.483 227.591,174.032 226.772,173.622 226.331 C 173.212 225.891,172.761 224.916,172.620 224.165 C 172.479 223.414,172.221 222.800,172.046 222.800 C 171.430 222.800,170.800 220.735,170.547 217.884 C 170.406 216.298,170.096 214.754,169.859 214.454 C 169.237 213.670,169.271 206.569,169.900 205.940 C 170.175 205.665,170.404 204.801,170.410 204.020 C 170.423 202.105,171.131 199.150,171.754 198.406 C 172.033 198.073,172.475 197.054,172.735 196.141 C 172.995 195.229,173.453 194.389,173.752 194.274 C 174.052 194.159,174.416 193.591,174.561 193.012 C 175.041 191.099,184.398 182.400,185.976 182.400 C 186.331 182.400,186.922 182.050,187.288 181.622 C 187.654 181.195,188.639 180.722,189.477 180.572 C 190.315 180.422,191.333 180.007,191.740 179.651 C 193.476 178.132,209.201 178.059,211.232 179.560 " stroke="none" fill="#f45424" fill-rule="evenodd"></path><path id="path2" d="M190.300 111.500 C 196.515 111.562,206.685 111.562,212.900 111.500 C 219.115 111.438,214.030 111.387,201.600 111.387 C 189.170 111.387,184.085 111.438,190.300 111.500 M175.083 111.879 C 173.972 112.167,172.136 113.195,172.726 113.198 C 173.016 113.199,173.633 112.996,174.098 112.748 C 174.563 112.499,175.856 112.161,176.972 111.997 C 178.860 111.720,178.889 111.700,177.400 111.696 C 176.520 111.694,175.477 111.777,175.083 111.879 M225.700 111.876 C 226.085 111.976,226.715 111.976,227.100 111.876 C 227.485 111.775,227.170 111.693,226.400 111.693 C 225.630 111.693,225.315 111.775,225.700 111.876 M170.154 113.706 C 169.689 113.978,168.587 114.597,167.705 115.082 C 166.134 115.947,159.098 122.728,158.356 124.092 C 158.149 124.473,159.632 123.077,161.652 120.989 C 163.672 118.901,166.151 116.659,167.162 116.007 C 168.173 115.355,169.188 114.664,169.418 114.471 C 169.648 114.279,170.368 113.928,171.018 113.692 C 171.668 113.456,171.930 113.252,171.600 113.237 C 171.270 113.223,170.619 113.434,170.154 113.706 M231.600 113.487 C 231.930 113.610,232.965 114.153,233.900 114.693 C 234.835 115.234,235.600 115.577,235.600 115.455 C 235.600 115.087,232.171 113.198,231.565 113.232 C 231.113 113.257,231.120 113.308,231.600 113.487 M236.400 116.073 C 238.187 117.839,241.600 120.889,241.600 120.719 C 241.600 120.356,238.964 117.812,237.374 116.640 C 236.508 116.002,236.070 115.746,236.400 116.073 M242.412 121.800 C 242.735 122.240,243.978 123.590,245.173 124.800 C 246.380 126.021,246.756 126.299,246.019 125.425 C 244.411 123.516,241.588 120.679,242.412 121.800 M247.233 127.300 C 247.325 127.355,247.940 127.850,248.600 128.400 L 249.800 129.400 248.830 128.300 C 248.297 127.695,247.682 127.200,247.464 127.200 C 247.245 127.200,247.142 127.245,247.233 127.300 M151.640 130.007 C 150.672 130.663,150.045 131.200,150.247 131.200 C 150.670 131.200,153.600 129.265,153.600 128.986 C 153.600 128.694,153.505 128.744,151.640 130.007 M131.400 131.630 C 122.380 131.786,114.507 132.068,113.905 132.257 C 113.227 132.469,115.518 132.563,119.905 132.502 C 141.538 132.205,147.134 132.044,148.400 131.682 C 149.459 131.379,149.556 131.290,148.800 131.314 C 148.250 131.332,140.420 131.474,131.400 131.630 M254.704 131.772 C 255.307 131.977,263.000 132.186,271.800 132.236 C 281.749 132.293,286.956 132.199,285.568 131.987 C 282.400 131.503,253.315 131.300,254.704 131.772 M110.500 133.076 C 110.885 133.176,111.515 133.176,111.900 133.076 C 112.285 132.975,111.970 132.893,111.200 132.893 C 110.430 132.893,110.115 132.975,110.500 133.076 M105.800 134.209 C 104.700 134.750,104.075 135.194,104.411 135.196 C 104.747 135.198,105.407 134.930,105.878 134.601 C 106.348 134.271,107.423 133.839,108.267 133.641 C 109.376 133.380,109.523 133.273,108.800 133.253 C 108.250 133.237,106.900 133.668,105.800 134.209 M294.600 133.478 C 296.070 133.818,300.572 135.691,302.798 136.888 C 304.009 137.539,304.640 137.776,304.200 137.415 C 303.462 136.809,300.732 135.428,297.140 133.844 C 296.336 133.490,295.256 133.221,294.740 133.246 C 293.927 133.287,293.908 133.318,294.600 133.478 M100.000 136.967 C 98.570 137.928,96.860 139.316,96.200 140.051 C 94.995 141.393,95.655 140.982,97.784 139.065 C 98.795 138.153,102.389 135.776,103.200 135.481 C 103.733 135.287,103.733 135.261,103.200 135.241 C 102.870 135.229,101.430 136.005,100.000 136.967 M304.800 138.511 C 304.800 138.587,305.385 139.078,306.100 139.601 C 306.904 140.190,307.184 140.287,306.833 139.855 C 306.300 139.199,304.800 138.207,304.800 138.511 M93.956 142.500 C 93.486 143.395,93.488 143.396,94.342 142.638 C 95.295 141.791,95.382 141.600,94.814 141.600 C 94.602 141.600,94.216 142.005,93.956 142.500 M309.774 143.800 C 311.167 145.852,311.452 146.095,310.677 144.571 C 310.334 143.895,309.749 143.090,309.378 142.782 C 309.007 142.474,309.185 142.932,309.774 143.800 M93.200 143.939 C 93.200 144.125,92.840 144.693,92.400 145.200 C 91.960 145.707,91.600 146.310,91.600 146.539 C 91.600 146.768,92.050 146.345,92.600 145.600 C 93.553 144.308,93.836 143.600,93.400 143.600 C 93.290 143.600,93.200 143.752,93.200 143.939 M90.254 150.381 C 89.844 151.230,89.605 152.166,89.722 152.462 C 89.866 152.823,89.947 152.765,89.968 152.286 C 89.986 151.893,90.287 151.134,90.638 150.599 C 90.988 150.064,91.213 149.448,91.138 149.232 C 91.062 149.015,90.664 149.532,90.254 150.381 M313.216 151.326 C 313.207 151.506,313.425 152.046,313.700 152.526 C 314.091 153.209,314.245 165.684,314.408 209.600 L 314.616 265.800 314.608 209.600 C 314.601 157.321,314.552 153.316,313.916 152.200 C 313.540 151.540,313.225 151.147,313.216 151.326 M88.924 158.200 C 88.926 159.520,89.001 160.012,89.090 159.293 C 89.179 158.574,89.177 157.494,89.086 156.893 C 88.995 156.292,88.922 156.880,88.924 158.200 M88.594 211.000 C 88.594 238.720,88.642 250.001,88.700 236.069 C 88.758 222.137,88.758 199.457,88.700 185.669 C 88.642 171.881,88.594 183.280,88.594 211.000 M199.700 161.896 C 200.965 161.975,203.035 161.975,204.300 161.896 C 205.565 161.816,204.530 161.751,202.000 161.751 C 199.470 161.751,198.435 161.816,199.700 161.896 M192.800 162.600 C 190.959 163.309,192.454 163.318,194.600 162.611 C 195.843 162.202,195.977 162.081,195.200 162.072 C 194.650 162.066,193.570 162.303,192.800 162.600 M208.600 162.325 C 208.820 162.564,209.810 162.855,210.800 162.972 C 212.292 163.148,212.395 163.123,211.400 162.823 C 208.438 161.929,208.195 161.886,208.600 162.325 M189.300 163.476 C 189.685 163.576,190.315 163.576,190.700 163.476 C 191.085 163.375,190.770 163.293,190.000 163.293 C 189.230 163.293,188.915 163.375,189.300 163.476 M185.819 164.369 C 185.694 164.572,185.040 164.859,184.367 165.007 C 183.694 165.155,183.234 165.367,183.345 165.478 C 183.618 165.752,186.332 164.834,186.618 164.371 C 186.744 164.167,186.667 164.000,186.447 164.000 C 186.227 164.000,185.945 164.166,185.819 164.369 M217.261 164.618 C 217.624 164.989,218.140 165.220,218.406 165.131 C 218.673 165.042,218.375 164.739,217.745 164.456 C 216.673 163.976,216.642 163.986,217.261 164.618 M267.100 165.493 C 268.035 165.577,269.565 165.577,270.500 165.493 C 271.435 165.409,270.670 165.340,268.800 165.340 C 266.930 165.340,266.165 165.409,267.100 165.493 M181.154 166.340 C 180.629 166.747,179.930 167.183,179.600 167.309 C 179.080 167.506,179.083 167.541,179.622 167.568 C 179.965 167.586,180.855 167.150,181.600 166.600 C 182.345 166.050,182.765 165.600,182.532 165.600 C 182.299 165.600,181.679 165.933,181.154 166.340 M222.000 166.600 C 222.745 167.150,223.635 167.586,223.978 167.568 C 224.517 167.541,224.520 167.506,224.000 167.309 C 223.670 167.183,222.971 166.747,222.446 166.340 C 221.921 165.933,221.301 165.600,221.068 165.600 C 220.835 165.600,221.255 166.050,222.000 166.600 M261.350 167.900 C 259.166 169.965,259.781 169.559,263.250 166.646 C 263.608 166.346,264.147 166.002,264.450 165.882 C 264.882 165.710,264.870 165.656,264.391 165.632 C 264.057 165.614,262.688 166.635,261.350 167.900 M273.800 166.612 C 274.460 167.153,275.170 167.597,275.378 167.598 C 275.585 167.599,275.145 167.150,274.400 166.600 C 272.660 165.317,272.230 165.325,273.800 166.612 M176.800 168.600 C 176.055 169.150,175.625 169.600,175.845 169.600 C 176.065 169.600,176.855 169.150,177.600 168.600 C 178.345 168.050,178.775 167.600,178.555 167.600 C 178.335 167.600,177.545 168.050,176.800 168.600 M226.000 168.600 C 226.745 169.150,227.535 169.600,227.755 169.600 C 227.975 169.600,227.545 169.150,226.800 168.600 C 226.055 168.050,225.265 167.600,225.045 167.600 C 224.825 167.600,225.255 168.050,226.000 168.600 M277.600 169.668 C 278.602 170.645,279.110 170.825,278.618 170.029 C 278.473 169.795,277.960 169.399,277.478 169.149 C 276.683 168.736,276.694 168.785,277.600 169.668 M173.891 170.400 C 173.331 170.840,172.736 171.200,172.568 171.200 C 172.400 171.200,171.509 171.987,170.587 172.949 C 169.665 173.911,168.571 174.896,168.156 175.137 C 167.739 175.379,167.632 175.581,167.916 175.588 C 168.199 175.595,169.297 174.721,170.354 173.646 C 171.412 172.572,172.641 171.577,173.086 171.436 C 173.531 171.295,174.216 170.824,174.609 170.390 C 175.529 169.374,175.189 169.379,173.891 170.400 M229.289 170.476 C 231.572 172.412,233.130 173.390,231.400 171.800 C 230.520 170.992,229.440 170.155,229.000 169.941 C 228.491 169.693,228.596 169.888,229.289 170.476 M278.994 171.501 C 280.159 173.793,280.395 174.137,280.398 173.544 C 280.399 173.184,280.026 172.464,279.570 171.944 C 279.113 171.425,278.854 171.226,278.994 171.501 M235.507 175.518 C 239.107 179.158,243.058 184.596,244.959 188.525 C 245.577 189.804,246.156 190.777,246.245 190.688 C 247.249 189.684,235.245 173.200,233.509 173.200 C 233.347 173.200,234.247 174.243,235.507 175.518 M280.493 177.200 C 280.493 177.970,280.575 178.285,280.676 177.900 C 280.776 177.515,280.776 176.885,280.676 176.500 C 280.575 176.115,280.493 176.430,280.493 177.200 M256.963 179.670 C 257.070 181.187,258.800 184.686,258.800 183.385 C 258.800 183.208,258.518 182.751,258.172 182.369 C 257.827 181.988,257.384 180.804,257.188 179.738 L 256.831 177.800 256.963 179.670 M199.300 179.097 C 200.785 179.174,203.215 179.174,204.700 179.097 C 206.185 179.020,204.970 178.957,202.000 178.957 C 199.030 178.957,197.815 179.020,199.300 179.097 M193.800 179.786 C 192.252 180.494,193.367 180.506,195.200 179.800 C 196.108 179.450,196.319 179.257,195.800 179.248 C 195.360 179.242,194.460 179.483,193.800 179.786 M208.746 179.816 C 210.442 180.552,210.821 180.542,209.824 179.787 C 209.396 179.464,208.676 179.207,208.224 179.216 C 207.616 179.227,207.753 179.385,208.746 179.816 M161.664 182.800 C 160.758 184.120,160.160 185.200,160.335 185.200 C 160.510 185.200,161.050 184.525,161.535 183.700 C 162.020 182.875,162.705 181.795,163.057 181.300 C 163.409 180.805,163.611 180.400,163.504 180.400 C 163.398 180.400,162.570 181.480,161.664 182.800 M190.118 180.930 C 189.412 181.189,188.602 181.634,188.318 181.921 C 187.890 182.352,191.440 181.016,191.967 180.548 C 192.271 180.278,191.418 180.454,190.118 180.930 M280.032 180.716 C 280.014 181.000,279.608 181.763,279.128 182.411 C 278.649 183.060,278.338 183.671,278.437 183.771 C 278.767 184.101,280.482 181.245,280.271 180.718 C 280.102 180.297,280.057 180.296,280.032 180.716 M213.578 181.241 C 214.117 181.456,214.792 181.827,215.078 182.065 C 215.379 182.315,215.600 182.335,215.600 182.113 C 215.600 181.687,213.837 180.786,213.081 180.825 C 212.817 180.839,213.040 181.027,213.578 181.241 M216.600 182.865 C 220.378 184.946,224.049 188.017,226.560 191.200 C 227.313 192.154,227.508 192.282,227.171 191.600 C 226.018 189.263,217.798 182.367,216.220 182.412 C 215.989 182.419,216.160 182.623,216.600 182.865 M184.638 183.800 C 183.999 184.350,183.319 184.800,183.128 184.800 C 182.674 184.800,177.816 189.617,176.125 191.743 C 174.067 194.331,174.573 194.313,176.744 191.721 C 178.864 189.189,182.622 185.635,185.013 183.900 C 185.847 183.295,186.365 182.800,186.164 182.800 C 185.964 182.801,185.277 183.251,184.638 183.800 M259.978 185.337 C 260.737 186.142,261.413 186.800,261.482 186.800 C 261.845 186.800,260.580 185.297,259.662 184.637 C 258.820 184.032,258.886 184.177,259.978 185.337 M276.575 185.700 L 275.400 187.000 276.700 185.825 C 277.415 185.179,278.000 184.594,278.000 184.525 C 278.000 184.216,277.670 184.488,276.575 185.700 M262.800 187.564 C 263.350 188.014,263.980 188.383,264.200 188.385 C 264.628 188.388,263.905 187.834,262.600 187.160 C 262.069 186.885,262.136 187.021,262.800 187.564 M273.200 187.800 C 272.455 188.350,271.979 188.800,272.144 188.800 C 272.308 188.800,273.105 188.350,273.914 187.800 C 274.723 187.250,275.199 186.800,274.971 186.800 C 274.742 186.800,273.945 187.250,273.200 187.800 M268.100 189.087 C 268.705 189.178,269.695 189.178,270.300 189.087 C 270.905 188.995,270.410 188.920,269.200 188.920 C 267.990 188.920,267.495 188.995,268.100 189.087 M156.297 193.092 C 155.736 194.361,155.174 196.210,155.048 197.200 C 154.853 198.733,154.927 198.614,155.550 196.400 C 155.952 194.970,156.597 193.204,156.982 192.475 C 157.368 191.746,157.601 191.068,157.500 190.967 C 157.399 190.866,156.858 191.822,156.297 193.092 M230.556 198.177 C 231.009 199.154,231.437 199.896,231.507 199.826 C 231.722 199.611,230.331 196.400,230.023 196.400 C 229.863 196.400,230.103 197.199,230.556 198.177 M171.900 199.974 C 170.932 202.032,171.019 202.525,172.021 200.657 C 172.472 199.814,172.787 198.981,172.721 198.805 C 172.654 198.630,172.285 199.155,171.900 199.974 M154.267 199.467 C 154.120 199.613,154.015 200.198,154.034 200.767 C 154.068 201.781,154.075 201.779,154.421 200.620 C 154.785 199.403,154.731 199.002,154.267 199.467 M249.392 202.000 C 249.871 205.149,250.393 206.820,250.172 204.496 C 250.062 203.339,249.793 201.989,249.575 201.496 C 249.247 200.753,249.216 200.839,249.392 202.000 M232.963 210.400 C 232.963 214.030,233.023 215.515,233.098 213.700 C 233.172 211.885,233.172 208.915,233.098 207.100 C 233.023 205.285,232.963 206.770,232.963 210.400 M153.359 210.400 C 153.359 213.590,153.421 214.895,153.497 213.300 C 153.573 211.705,153.573 209.095,153.497 207.500 C 153.421 205.905,153.359 207.210,153.359 210.400 M170.550 210.200 C 170.551 212.620,170.616 213.558,170.696 212.285 C 170.776 211.012,170.775 209.032,170.694 207.885 C 170.614 206.738,170.549 207.780,170.550 210.200 M250.064 216.051 C 250.029 216.849,249.730 218.149,249.400 218.938 C 249.070 219.728,248.825 220.875,248.854 221.487 C 248.907 222.560,248.915 222.564,249.079 221.600 C 249.172 221.050,249.521 219.864,249.854 218.964 C 250.187 218.063,250.385 216.713,250.294 215.964 L 250.128 214.600 250.064 216.051 M170.901 216.600 C 170.905 217.480,170.987 217.793,171.083 217.295 C 171.179 216.798,171.175 216.078,171.075 215.695 C 170.975 215.313,170.896 215.720,170.901 216.600 M232.446 217.820 C 232.421 218.271,232.187 218.853,231.927 219.113 C 231.666 219.374,231.562 219.695,231.694 219.828 C 232.070 220.203,232.872 218.439,232.672 217.679 C 232.531 217.146,232.483 217.176,232.446 217.820 M153.646 218.313 C 153.621 218.815,153.870 219.872,154.200 220.662 C 154.530 221.451,154.821 222.481,154.846 222.949 C 154.887 223.687,154.918 223.701,155.084 223.056 C 155.189 222.648,155.001 221.568,154.666 220.656 C 154.330 219.745,153.974 218.640,153.874 218.200 C 153.714 217.492,153.687 217.505,153.646 218.313 M171.219 219.600 C 171.212 219.930,171.563 220.740,172.000 221.400 C 173.010 222.925,173.010 222.245,172.000 220.400 C 171.578 219.630,171.227 219.270,171.219 219.600 M231.074 221.070 C 230.964 221.471,230.756 222.326,230.612 222.968 C 230.468 223.611,230.002 224.580,229.575 225.122 C 229.149 225.664,228.800 226.289,228.800 226.510 C 228.800 227.432,230.836 223.821,231.180 222.289 C 231.549 220.647,231.462 219.648,231.074 221.070 M173.200 224.183 C 173.200 224.343,173.560 224.931,174.000 225.491 C 174.440 226.050,174.800 226.377,174.800 226.217 C 174.800 226.057,174.440 225.469,174.000 224.909 C 173.560 224.350,173.200 224.023,173.200 224.183 M247.704 225.884 C 247.431 226.466,247.282 227.015,247.372 227.105 C 247.612 227.346,248.473 225.618,248.326 225.191 C 248.257 224.990,247.977 225.302,247.704 225.884 M156.445 228.300 C 156.897 229.657,157.200 229.968,157.200 229.076 C 157.200 228.789,156.932 228.204,156.605 227.776 C 156.062 227.066,156.048 227.111,156.445 228.300 M227.543 228.500 C 226.896 229.422,226.836 229.635,227.337 229.233 C 228.050 228.660,228.987 227.200,228.641 227.200 C 228.539 227.200,228.044 227.785,227.543 228.500 M246.614 228.739 C 246.469 229.396,246.002 230.337,245.575 230.828 C 245.149 231.320,244.800 231.899,244.800 232.115 C 244.800 232.331,245.166 232.042,245.614 231.473 C 246.519 230.322,247.407 228.074,247.084 227.751 C 246.970 227.636,246.758 228.081,246.614 228.739 M176.383 229.500 C 177.126 230.435,177.806 231.200,177.894 231.200 C 178.177 231.200,176.463 228.949,175.735 228.364 C 175.348 228.054,175.640 228.565,176.383 229.500 M157.462 230.800 C 157.770 232.015,158.831 233.702,159.111 233.422 C 159.223 233.311,159.063 232.919,158.757 232.551 C 158.451 232.184,157.977 231.415,157.704 230.842 L 157.208 229.800 157.462 230.800 M225.696 230.853 C 224.538 232.272,222.629 234.158,221.585 234.913 C 221.043 235.306,219.988 236.071,219.241 236.613 C 218.493 237.156,218.071 237.600,218.303 237.600 C 218.690 237.600,220.582 236.195,223.272 233.910 C 224.496 232.871,226.950 230.000,226.615 230.000 C 226.492 230.000,226.079 230.384,225.696 230.853 M244.432 233.222 C 244.414 233.565,243.950 234.455,243.400 235.200 C 242.850 235.945,242.400 236.731,242.400 236.946 C 242.400 237.161,242.956 236.498,243.635 235.473 C 244.314 234.448,244.778 233.382,244.666 233.104 C 244.530 232.765,244.453 232.804,244.432 233.222 M182.571 235.554 C 182.947 236.162,187.641 239.203,188.180 239.188 C 188.411 239.181,188.240 238.972,187.800 238.723 C 187.360 238.474,185.940 237.555,184.643 236.682 C 183.347 235.808,182.415 235.301,182.571 235.554 M160.839 236.976 C 161.301 237.759,161.756 238.400,161.850 238.400 C 162.134 238.400,160.836 236.069,160.402 235.801 C 160.180 235.664,160.377 236.193,160.839 236.976 M216.200 238.427 C 214.855 239.289,215.039 239.438,216.581 238.736 C 217.142 238.480,217.600 238.120,217.600 237.936 C 217.600 237.518,217.643 237.503,216.200 238.427 M240.111 240.084 C 238.009 242.816,234.576 246.406,232.400 248.145 C 231.630 248.761,231.360 249.084,231.800 248.863 C 233.883 247.816,243.322 237.600,242.206 237.600 C 242.105 237.600,241.162 238.718,240.111 240.084 M163.067 239.897 C 164.331 242.233,171.749 249.413,174.353 250.820 C 175.149 251.250,176.250 251.894,176.800 252.250 L 177.800 252.898 176.800 252.036 C 176.250 251.562,175.277 250.891,174.638 250.545 C 173.998 250.198,173.207 249.709,172.880 249.457 C 171.633 248.499,163.714 240.554,163.056 239.600 C 162.428 238.691,162.429 238.718,163.067 239.897 M190.600 240.226 C 191.700 240.756,193.050 241.174,193.600 241.155 C 194.344 241.129,194.213 241.028,193.087 240.763 C 192.255 240.567,191.049 240.136,190.407 239.804 C 189.765 239.472,189.096 239.214,188.920 239.232 C 188.744 239.249,189.500 239.697,190.600 240.226 M212.800 239.864 C 212.030 240.212,210.860 240.636,210.200 240.807 C 209.111 241.089,209.092 241.120,210.000 241.135 C 210.933 241.150,215.476 239.288,214.600 239.249 C 214.380 239.239,213.570 239.516,212.800 239.864 M199.076 242.058 C 199.982 242.416,203.012 242.397,204.600 242.023 C 205.334 241.851,204.355 241.747,202.076 241.757 C 200.027 241.765,198.677 241.901,199.076 242.058 M227.078 251.813 C 225.606 253.107,226.133 253.096,227.673 251.800 C 228.327 251.250,228.713 250.806,228.531 250.813 C 228.349 250.820,227.695 251.270,227.078 251.813 M178.600 253.600 C 178.998 254.040,179.474 254.400,179.658 254.400 C 179.842 254.400,179.684 254.040,179.307 253.600 C 178.930 253.160,178.454 252.800,178.249 252.800 C 178.044 252.800,178.202 253.160,178.600 253.600 M224.576 253.240 C 224.426 253.481,223.741 253.924,223.052 254.224 C 222.357 254.526,222.102 254.776,222.478 254.784 C 223.107 254.799,225.735 252.841,225.124 252.813 C 224.972 252.806,224.725 252.998,224.576 253.240 M183.510 255.601 C 185.208 256.637,185.764 256.636,184.200 255.600 C 183.540 255.163,182.820 254.805,182.600 254.804 C 182.380 254.804,182.789 255.162,183.510 255.601 M189.400 257.562 C 190.280 258.008,191.360 258.371,191.800 258.369 C 192.256 258.367,191.912 258.103,191.000 257.756 C 188.428 256.778,187.672 256.686,189.400 257.562 M214.296 257.037 C 214.166 257.167,213.371 257.519,212.530 257.819 C 211.660 258.130,211.345 258.368,211.800 258.372 C 212.774 258.381,216.060 256.878,215.167 256.832 C 214.818 256.815,214.427 256.907,214.296 257.037 M197.921 258.699 C 200.188 258.770,203.788 258.770,205.921 258.698 C 208.055 258.626,206.200 258.568,201.800 258.568 C 197.400 258.568,195.655 258.627,197.921 258.699 M88.893 262.800 C 88.893 263.570,88.975 263.885,89.076 263.500 C 89.176 263.115,89.176 262.485,89.076 262.100 C 88.975 261.715,88.893 262.030,88.893 262.800 M89.301 266.200 C 89.305 267.080,89.387 267.393,89.483 266.895 C 89.579 266.398,89.575 265.678,89.475 265.295 C 89.375 264.913,89.296 265.320,89.301 266.200 M314.054 266.651 C 314.025 267.119,313.730 268.149,313.400 268.938 C 313.070 269.728,312.810 270.605,312.822 270.887 C 312.834 271.169,313.202 270.515,313.641 269.434 C 314.080 268.353,314.364 267.093,314.274 266.634 C 314.110 265.805,314.109 265.805,314.054 266.651 M89.636 268.901 C 89.616 269.287,89.960 270.275,90.400 271.096 C 90.840 271.916,91.200 272.286,91.200 271.918 C 91.200 271.549,91.023 271.138,90.806 271.004 C 90.590 270.870,90.246 270.184,90.042 269.480 C 89.839 268.776,89.656 268.516,89.636 268.901 M311.951 273.446 C 311.593 274.191,311.437 274.800,311.602 274.800 C 311.940 274.800,312.993 272.453,312.754 272.234 C 312.669 272.156,312.308 272.702,311.951 273.446 M91.614 274.822 C 91.606 274.945,92.050 275.655,92.600 276.400 C 93.150 277.145,93.599 277.585,93.598 277.378 C 93.596 276.972,91.638 274.451,91.614 274.822 M310.800 275.454 C 310.800 276.118,307.654 280.554,306.499 281.518 C 305.895 282.023,304.700 282.968,303.845 283.618 C 302.990 284.268,302.456 284.800,302.658 284.800 C 304.445 284.800,311.980 276.246,311.029 275.296 C 310.903 275.170,310.800 275.241,310.800 275.454 M94.413 278.986 C 96.014 280.909,97.705 282.503,99.200 283.498 L 100.600 284.429 99.400 283.405 C 98.740 282.841,97.126 281.350,95.813 280.090 C 94.500 278.831,93.870 278.334,94.413 278.986 M102.926 285.827 C 103.757 286.392,104.654 286.766,104.919 286.659 C 105.228 286.533,105.185 286.449,104.800 286.423 C 104.470 286.400,103.750 286.030,103.200 285.600 C 102.650 285.170,102.023 284.814,101.807 284.809 C 101.591 284.804,102.094 285.262,102.926 285.827 M299.637 285.830 C 298.667 286.363,298.127 286.794,298.437 286.788 C 298.747 286.781,299.720 286.332,300.600 285.790 C 302.649 284.527,301.950 284.557,299.637 285.830 M108.200 287.807 C 109.740 288.351,111.630 288.775,112.400 288.748 C 113.592 288.707,113.503 288.654,111.800 288.390 C 110.700 288.219,109.131 287.792,108.313 287.440 C 107.495 287.088,106.505 286.804,106.113 286.808 C 105.721 286.813,106.660 287.262,108.200 287.807 M294.800 287.655 C 294.250 287.878,292.720 288.218,291.400 288.411 L 289.000 288.763 291.400 288.626 C 292.720 288.551,294.430 288.214,295.200 287.877 C 296.744 287.202,296.396 287.009,294.800 287.655 " stroke="none" fill="#f49474" fill-rule="evenodd"></path><path id="path3" d="M177.200 111.977 C 175.158 112.306,170.048 113.944,169.417 114.472 C 169.188 114.664,168.190 115.344,167.200 115.982 C 166.210 116.621,162.760 119.844,159.532 123.145 C 150.211 132.678,151.226 132.363,129.800 132.391 C 114.754 132.412,108.402 132.977,105.940 134.517 C 105.423 134.840,104.460 135.230,103.800 135.383 C 101.281 135.967,93.600 142.279,93.600 143.765 C 93.600 144.029,93.168 144.830,92.640 145.546 C 92.112 146.261,91.559 147.511,91.411 148.323 C 91.262 149.135,90.889 150.192,90.581 150.670 C 89.149 152.894,89.080 155.280,88.922 207.973 C 88.758 262.379,88.908 268.073,90.566 270.604 C 90.883 271.087,91.272 272.184,91.431 273.042 C 91.590 273.899,92.144 275.157,92.660 275.838 C 93.177 276.519,93.600 277.242,93.600 277.446 C 93.600 278.300,100.753 284.800,101.693 284.800 C 101.904 284.800,102.573 285.153,103.179 285.585 C 103.785 286.017,105.075 286.548,106.044 286.765 C 107.014 286.982,108.525 287.484,109.403 287.880 C 110.926 288.566,115.208 288.600,201.400 288.600 L 291.800 288.600 294.800 287.668 C 301.661 285.538,306.659 282.265,309.259 278.200 C 311.918 274.044,312.697 272.150,314.032 266.600 C 314.271 265.604,314.376 244.023,314.308 209.400 L 314.200 153.800 313.100 150.648 C 309.793 141.176,302.892 135.173,293.000 133.166 C 291.489 132.859,284.157 132.574,273.200 132.395 C 251.874 132.048,251.324 131.918,246.210 126.000 C 240.044 118.865,235.258 114.993,230.000 112.886 L 227.400 111.845 203.200 111.766 C 189.890 111.722,178.190 111.818,177.200 111.977 M224.400 112.649 C 225.830 112.990,228.106 113.479,229.458 113.735 C 230.810 113.991,232.265 114.515,232.690 114.900 C 233.115 115.285,233.588 115.600,233.741 115.600 C 234.431 115.600,238.113 118.489,239.867 120.406 C 245.800 126.892,248.903 130.000,249.448 130.000 C 249.727 130.000,250.199 130.348,250.497 130.774 C 250.795 131.200,251.888 131.762,252.926 132.023 C 253.964 132.285,254.911 132.656,255.030 132.849 C 255.150 133.042,261.222 133.205,268.524 133.210 C 285.598 133.224,293.551 133.685,295.662 134.785 C 296.513 135.229,297.943 135.709,298.839 135.853 C 299.735 135.996,300.557 136.344,300.665 136.626 C 300.773 136.907,301.574 137.423,302.444 137.771 C 303.315 138.119,304.127 138.666,304.250 138.987 C 304.373 139.307,304.808 139.676,305.216 139.805 C 305.625 139.935,306.070 140.392,306.206 140.820 C 306.343 141.249,306.694 141.600,306.987 141.600 C 307.980 141.600,311.759 148.589,312.210 151.258 C 312.363 152.168,312.825 153.652,313.236 154.556 C 314.440 157.207,314.395 263.690,313.189 266.349 C 312.753 267.310,312.282 269.064,312.143 270.245 C 311.989 271.556,311.522 272.892,310.945 273.674 C 310.425 274.379,310.000 275.286,310.000 275.690 C 310.000 276.094,309.753 276.520,309.450 276.636 C 309.148 276.752,308.582 277.552,308.193 278.415 C 307.805 279.277,307.169 280.083,306.780 280.206 C 306.392 280.330,305.977 280.684,305.858 280.994 C 305.739 281.304,305.082 281.847,304.399 282.200 C 303.716 282.554,302.807 283.193,302.379 283.621 C 301.950 284.050,301.264 284.400,300.854 284.400 C 300.444 284.400,299.679 284.737,299.154 285.149 C 298.629 285.561,297.390 286.029,296.400 286.189 C 295.410 286.349,293.812 286.822,292.849 287.240 C 290.067 288.448,113.146 288.412,110.482 287.203 C 109.537 286.774,107.879 286.305,106.799 286.162 C 105.655 286.010,104.551 285.588,104.155 285.151 C 103.782 284.738,103.189 284.400,102.838 284.400 C 102.487 284.399,101.677 283.949,101.038 283.400 C 100.399 282.850,99.729 282.400,99.550 282.400 C 99.129 282.400,94.400 277.662,94.400 277.240 C 94.400 277.064,93.863 276.128,93.207 275.160 C 92.551 274.192,92.011 272.943,92.007 272.385 C 92.003 271.826,91.595 270.656,91.100 269.785 L 90.200 268.200 90.200 210.542 C 90.200 156.805,90.246 152.833,90.881 152.132 C 91.255 151.718,91.689 150.585,91.844 149.614 C 91.999 148.644,92.548 147.228,93.063 146.469 C 93.578 145.710,94.000 144.904,94.000 144.678 C 94.000 143.932,99.913 138.000,100.655 138.000 C 100.909 138.000,101.540 137.553,102.058 137.007 C 102.576 136.461,103.450 136.006,104.000 135.997 C 104.550 135.988,106.080 135.533,107.400 134.986 C 110.481 133.710,118.119 133.214,134.814 133.206 C 151.839 133.198,150.684 133.705,162.919 120.854 C 164.914 118.759,168.786 115.600,169.359 115.600 C 169.643 115.600,170.202 115.240,170.600 114.800 C 170.998 114.360,171.802 114.000,172.386 114.000 C 172.970 114.000,174.877 113.649,176.624 113.219 C 178.371 112.790,180.250 112.365,180.800 112.274 C 184.062 111.736,221.940 112.062,224.400 112.649 M194.093 161.185 C 192.933 161.366,191.757 161.704,191.479 161.935 C 191.200 162.166,189.832 162.538,188.438 162.763 C 187.044 162.987,185.520 163.420,185.052 163.725 C 184.583 164.029,183.480 164.506,182.600 164.783 C 181.720 165.061,180.820 165.510,180.600 165.781 C 180.380 166.052,179.480 166.502,178.600 166.781 C 177.720 167.060,176.820 167.493,176.600 167.744 C 176.380 167.995,175.525 168.512,174.700 168.894 C 173.875 169.275,173.200 169.758,173.200 169.967 C 173.200 170.175,172.819 170.467,172.354 170.615 C 171.510 170.882,163.047 179.144,162.102 180.622 C 161.829 181.050,160.974 182.299,160.202 183.399 C 159.431 184.498,158.800 185.599,158.800 185.845 C 158.800 186.091,158.460 186.724,158.045 187.252 C 157.629 187.780,157.098 188.906,156.864 189.754 C 156.630 190.601,156.152 191.611,155.803 191.997 C 155.454 192.383,155.018 193.576,154.834 194.649 C 154.651 195.722,154.163 197.230,153.750 198.000 C 152.538 200.261,152.617 220.586,153.847 223.200 C 154.313 224.190,154.810 225.764,154.952 226.697 C 155.093 227.631,155.566 228.981,156.003 229.697 C 156.440 230.414,156.798 231.260,156.799 231.578 C 156.799 231.897,157.223 232.797,157.739 233.578 C 159.264 235.886,161.736 239.598,162.646 240.946 C 164.356 243.478,171.361 250.035,173.600 251.197 C 174.150 251.483,174.744 251.961,174.920 252.258 C 175.096 252.556,175.426 252.800,175.654 252.800 C 175.883 252.800,176.819 253.325,177.735 253.967 C 178.651 254.608,180.020 255.260,180.777 255.415 C 181.535 255.571,182.396 255.939,182.690 256.233 C 182.985 256.528,183.895 256.888,184.713 257.035 C 185.531 257.181,186.984 257.651,187.941 258.079 C 192.615 260.169,211.959 260.110,215.906 257.994 C 216.721 257.557,217.787 257.200,218.275 257.200 C 219.316 257.200,221.200 256.406,221.200 255.968 C 221.200 255.800,221.785 255.540,222.500 255.389 C 223.215 255.237,224.596 254.593,225.569 253.957 C 226.541 253.321,227.567 252.800,227.849 252.800 C 228.130 252.800,228.504 252.554,228.680 252.254 C 228.856 251.954,229.585 251.409,230.300 251.044 C 231.015 250.678,231.600 250.206,231.600 249.995 C 231.600 249.784,232.185 249.354,232.900 249.039 C 234.514 248.330,238.705 243.928,242.418 239.045 C 243.068 238.190,243.600 237.273,243.600 237.007 C 243.600 236.741,243.960 236.198,244.400 235.800 C 244.840 235.402,245.200 234.682,245.200 234.200 C 245.200 233.719,245.650 232.801,246.200 232.162 C 246.749 231.523,247.199 230.693,247.200 230.318 C 247.200 229.943,247.650 228.972,248.200 228.162 C 248.847 227.209,249.200 226.133,249.200 225.118 C 249.200 224.255,249.605 222.615,250.100 221.474 C 251.340 218.616,251.493 201.717,250.295 199.889 C 249.908 199.298,249.439 197.702,249.253 196.344 C 249.045 194.825,248.661 193.688,248.256 193.391 C 247.893 193.126,247.443 192.091,247.257 191.092 C 247.070 190.093,246.531 188.784,246.059 188.184 C 245.586 187.583,245.200 186.784,245.200 186.408 C 245.200 186.032,244.845 185.402,244.410 185.009 C 243.976 184.616,243.500 183.916,243.353 183.453 C 243.038 182.460,240.899 179.627,239.900 178.879 C 239.515 178.590,239.200 178.166,239.200 177.936 C 239.200 176.948,229.711 168.800,228.561 168.800 C 228.269 168.800,227.709 168.464,227.316 168.053 C 226.922 167.642,225.880 167.074,225.000 166.790 C 224.120 166.506,223.220 166.052,223.000 165.781 C 222.780 165.510,221.880 165.061,221.000 164.783 C 220.120 164.506,219.026 164.036,218.569 163.739 C 218.112 163.441,216.672 163.010,215.369 162.780 C 214.066 162.550,212.280 162.070,211.400 161.713 C 209.569 160.970,197.773 160.611,194.093 161.185 M207.800 162.009 C 212.798 162.886,216.305 163.739,217.597 164.392 C 218.369 164.783,219.577 165.227,220.281 165.379 C 220.986 165.531,221.976 165.978,222.481 166.373 C 222.987 166.767,223.850 167.226,224.400 167.393 C 225.768 167.807,228.439 169.462,231.029 171.500 C 232.217 172.435,233.327 173.200,233.496 173.200 C 235.509 173.200,246.800 189.186,246.800 192.035 C 246.800 192.349,247.250 193.452,247.800 194.485 C 248.350 195.518,248.802 196.777,248.805 197.282 C 248.807 197.787,249.165 199.640,249.600 201.400 C 250.600 205.446,250.749 216.650,249.836 219.092 C 249.526 219.921,249.062 221.770,248.805 223.200 C 248.548 224.630,248.105 226.163,247.821 226.606 C 247.537 227.049,247.182 227.972,247.032 228.657 C 246.881 229.341,246.318 230.499,245.779 231.228 C 245.241 231.958,244.797 232.835,244.793 233.178 C 244.767 235.375,235.750 246.360,232.022 248.735 C 231.460 249.093,230.765 249.704,230.477 250.093 C 230.190 250.482,229.709 250.800,229.408 250.800 C 229.107 250.800,228.327 251.250,227.673 251.800 C 227.019 252.350,226.266 252.800,226.000 252.800 C 225.734 252.800,224.981 253.250,224.327 253.800 C 223.673 254.350,222.769 254.800,222.317 254.800 C 221.864 254.800,220.933 255.145,220.247 255.566 C 219.561 255.988,218.286 256.465,217.414 256.627 C 216.541 256.789,215.011 257.299,214.014 257.761 C 211.222 259.053,192.342 259.045,189.600 257.750 C 188.610 257.283,187.112 256.778,186.271 256.627 C 185.430 256.476,184.170 256.004,183.471 255.578 C 182.772 255.152,181.840 254.800,181.400 254.796 C 180.371 254.786,179.652 254.364,172.838 249.766 C 165.294 244.676,156.345 231.562,155.006 223.633 C 154.843 222.670,154.445 221.249,154.122 220.475 C 152.865 217.466,153.079 201.093,154.398 199.400 C 154.569 199.180,154.837 198.190,154.993 197.200 C 155.246 195.598,157.430 189.980,158.414 188.400 C 158.620 188.070,159.039 187.246,159.345 186.568 C 160.557 183.888,164.250 179.130,168.014 175.400 C 171.057 172.384,172.339 171.200,172.563 171.200 C 172.711 171.200,173.320 170.868,173.916 170.463 C 176.943 168.403,178.298 167.627,179.284 167.386 C 179.880 167.241,180.569 166.878,180.816 166.581 C 181.062 166.284,181.925 165.829,182.732 165.570 C 183.539 165.311,184.936 164.770,185.836 164.369 C 186.736 163.967,188.583 163.459,189.939 163.241 C 191.296 163.022,192.610 162.717,192.860 162.563 C 194.186 161.744,204.174 161.373,207.800 162.009 M264.981 164.740 C 263.318 165.040,260.966 166.691,259.200 168.797 C 258.650 169.453,257.813 170.448,257.340 171.010 C 255.707 172.948,255.724 181.576,257.365 183.480 C 261.661 188.468,263.108 189.404,267.000 189.713 C 272.702 190.166,276.609 188.309,279.800 183.628 C 281.593 180.998,281.644 172.947,279.882 170.777 C 275.214 165.030,271.565 163.551,264.981 164.740 M274.435 166.600 C 276.365 167.912,278.800 170.119,278.800 170.557 C 278.800 170.708,279.187 171.356,279.661 171.997 C 280.801 173.539,280.938 180.519,279.860 182.164 C 274.063 191.012,264.085 191.532,258.320 183.287 C 254.552 177.900,258.616 166.732,264.800 165.476 C 267.941 164.838,272.652 165.388,274.435 166.600 M194.600 179.880 C 191.551 180.799,185.942 183.203,184.629 184.153 C 180.085 187.441,173.590 195.160,172.992 197.984 C 172.831 198.745,172.345 200.048,171.912 200.878 C 169.537 205.435,171.038 221.431,174.193 225.200 C 174.470 225.530,174.854 226.291,175.048 226.892 C 175.605 228.618,181.077 234.292,184.248 236.432 C 197.507 245.379,215.715 242.895,225.800 230.762 C 227.307 228.949,228.800 226.807,228.800 226.457 C 228.800 226.265,229.162 225.648,229.604 225.086 C 230.045 224.525,230.521 223.465,230.659 222.732 C 230.798 222.000,231.281 220.680,231.732 219.800 C 232.442 218.413,232.573 217.275,232.709 211.262 C 232.885 203.547,232.687 202.473,230.173 197.468 C 229.418 195.966,228.800 194.490,228.800 194.188 C 228.800 193.886,228.575 193.496,228.299 193.320 C 228.023 193.144,227.008 191.961,226.043 190.690 C 223.035 186.732,214.587 180.800,211.959 180.800 C 211.558 180.800,210.316 180.440,209.200 180.000 C 206.624 178.985,197.809 178.912,194.600 179.880 M208.200 180.635 C 208.860 180.940,210.359 181.369,211.531 181.590 C 212.703 181.811,214.123 182.353,214.685 182.796 C 215.248 183.238,215.876 183.600,216.081 183.600 C 216.286 183.600,217.043 184.050,217.764 184.600 C 218.486 185.150,219.270 185.600,219.507 185.600 C 220.163 185.600,226.256 191.716,226.562 192.681 C 226.710 193.146,227.075 193.620,227.375 193.735 C 227.674 193.850,228.140 194.632,228.410 195.472 C 228.680 196.312,229.161 197.298,229.478 197.661 C 229.795 198.025,230.297 199.285,230.594 200.461 C 230.891 201.638,231.411 203.320,231.750 204.200 C 232.709 206.696,232.620 214.877,231.608 217.106 C 231.183 218.044,230.718 219.484,230.577 220.306 C 230.273 222.072,228.129 226.462,227.347 226.920 C 227.046 227.096,226.800 227.431,226.800 227.665 C 226.800 229.859,217.891 237.314,213.911 238.450 C 212.970 238.718,211.880 239.209,211.489 239.541 C 209.494 241.232,194.801 241.005,191.415 239.231 C 190.544 238.774,189.549 238.400,189.204 238.400 C 188.860 238.400,187.328 237.500,185.800 236.400 C 184.272 235.300,182.837 234.390,182.611 234.378 C 181.766 234.332,175.600 227.139,175.600 226.199 C 175.600 225.929,175.246 225.257,174.813 224.707 C 174.380 224.156,173.804 222.827,173.533 221.753 C 173.262 220.679,172.762 219.466,172.420 219.057 C 171.464 217.912,171.504 202.812,172.466 201.742 C 172.833 201.334,173.257 200.280,173.408 199.400 C 173.560 198.520,174.115 197.129,174.642 196.309 C 175.169 195.488,175.600 194.636,175.600 194.415 C 175.600 194.037,183.216 186.286,185.188 184.655 C 185.684 184.246,186.744 183.733,187.545 183.516 C 188.345 183.298,189.288 182.865,189.641 182.552 C 189.993 182.239,191.466 181.735,192.913 181.432 C 194.360 181.130,195.781 180.735,196.072 180.555 C 197.724 179.532,205.927 179.586,208.200 180.635 " stroke="none" fill="#f4ac94" fill-rule="evenodd"></path><path id="path4" d="M174.884 111.187 C 174.160 111.362,173.245 111.797,172.852 112.153 C 172.459 112.509,171.680 112.800,171.122 112.800 C 170.564 112.800,169.679 113.135,169.154 113.543 C 168.629 113.952,167.596 114.597,166.857 114.976 C 166.119 115.355,162.476 118.665,158.763 122.332 C 155.049 126.000,151.603 129.360,151.106 129.800 C 150.238 130.567,149.463 130.609,132.201 130.825 C 116.682 131.018,114.031 131.138,112.975 131.696 C 112.301 132.052,110.591 132.463,109.175 132.609 C 107.692 132.762,106.151 133.191,105.540 133.620 C 104.957 134.029,103.967 134.479,103.340 134.619 C 101.125 135.115,100.800 135.259,100.800 135.747 C 100.800 136.018,100.215 136.455,99.500 136.719 C 97.505 137.454,92.800 142.224,92.800 143.511 C 92.800 143.894,92.462 144.418,92.050 144.676 C 91.637 144.934,91.172 145.832,91.016 146.672 C 90.860 147.513,90.464 148.499,90.136 148.864 C 89.809 149.230,89.355 150.760,89.128 152.264 C 88.901 153.769,88.568 155.292,88.387 155.648 C 86.938 158.504,86.631 260.576,88.063 263.600 C 88.427 264.370,88.835 266.327,88.970 267.949 C 89.135 269.938,89.472 271.259,90.007 272.010 C 90.443 272.623,90.801 273.276,90.802 273.462 C 90.810 274.638,91.727 276.800,92.219 276.800 C 92.538 276.800,92.800 277.078,92.800 277.418 C 92.800 277.758,93.224 278.460,93.742 278.978 C 94.260 279.496,94.801 280.225,94.944 280.598 C 95.087 280.971,95.546 281.366,95.965 281.475 C 96.384 281.584,96.816 282.016,96.925 282.435 C 97.034 282.854,97.456 283.319,97.862 283.469 C 98.268 283.619,98.701 283.890,98.824 284.071 C 99.329 284.815,103.629 287.116,104.992 287.372 C 105.798 287.523,107.030 287.996,107.729 288.422 C 108.977 289.183,110.707 289.197,201.840 289.199 L 294.681 289.200 296.562 288.200 C 297.596 287.650,298.769 287.200,299.167 287.200 C 299.566 287.200,300.321 286.873,300.846 286.473 C 301.371 286.073,302.392 285.508,303.115 285.218 C 303.839 284.928,304.610 284.355,304.829 283.945 C 305.049 283.535,305.423 283.200,305.661 283.200 C 305.899 283.200,306.793 282.501,307.647 281.647 C 308.501 280.793,309.200 279.899,309.200 279.661 C 309.200 279.423,309.541 279.046,309.958 278.823 C 310.375 278.599,310.908 277.865,311.144 277.190 C 311.379 276.515,311.938 275.497,312.386 274.927 C 312.834 274.358,313.200 273.443,313.200 272.893 C 313.200 272.344,313.605 271.243,314.100 270.447 L 315.000 269.000 315.000 210.400 L 315.000 151.800 314.144 150.400 C 313.674 149.630,313.175 148.350,313.036 147.555 C 312.898 146.760,312.428 145.787,311.992 145.393 C 311.556 144.999,311.200 144.459,311.200 144.194 C 311.200 142.609,301.740 134.400,299.913 134.400 C 299.521 134.400,299.200 134.238,299.200 134.039 C 299.200 133.506,296.902 132.800,295.166 132.800 C 294.334 132.800,293.145 132.599,292.526 132.353 C 289.717 131.237,287.576 131.090,270.790 130.852 C 253.038 130.601,252.977 130.597,252.014 129.700 C 251.484 129.205,250.752 128.800,250.389 128.800 C 250.026 128.800,249.523 128.350,249.273 127.800 C 249.022 127.250,248.539 126.800,248.199 126.800 C 247.859 126.800,247.409 126.350,247.200 125.800 C 246.991 125.250,246.574 124.800,246.274 124.800 C 245.974 124.800,245.523 124.350,245.273 123.800 C 245.022 123.250,244.543 122.800,244.209 122.800 C 243.874 122.800,243.600 122.534,243.600 122.209 C 243.600 121.884,243.150 121.324,242.600 120.963 C 242.050 120.603,241.600 120.129,241.600 119.911 C 241.600 119.339,237.149 115.241,236.200 114.939 C 235.760 114.800,235.170 114.358,234.889 113.959 C 234.607 113.559,233.707 113.113,232.889 112.967 C 232.070 112.822,230.770 112.320,230.000 111.851 C 228.524 110.954,178.345 110.349,174.884 111.187 M230.303 112.689 C 233.761 113.992,237.969 116.720,240.128 119.058 C 246.734 126.214,249.715 129.200,250.251 129.200 C 250.531 129.200,250.922 129.489,251.120 129.843 C 251.929 131.288,255.186 131.600,269.587 131.609 C 283.495 131.617,294.874 132.559,297.430 133.914 C 297.853 134.138,299.460 134.911,301.000 135.632 C 307.310 138.584,312.360 145.563,314.435 154.200 C 314.674 155.195,314.778 176.892,314.710 211.600 L 314.600 267.400 313.727 269.600 C 313.247 270.810,312.752 272.282,312.627 272.872 C 312.501 273.462,312.174 274.182,311.899 274.472 C 311.625 274.762,311.084 275.684,310.697 276.520 C 309.862 278.325,309.554 278.733,307.200 281.151 C 304.230 284.202,301.661 285.671,295.894 287.617 L 292.388 288.800 201.609 288.800 C 113.782 288.800,110.767 288.776,108.915 288.050 C 107.862 287.637,106.377 287.164,105.615 286.999 C 104.321 286.719,103.486 286.266,99.400 283.633 C 95.975 281.425,92.060 276.459,91.203 273.236 C 90.946 272.266,90.496 271.096,90.204 270.636 C 88.516 267.980,88.345 261.602,88.514 207.800 C 88.680 154.924,88.764 152.217,90.289 150.317 C 90.517 150.032,91.000 148.765,91.363 147.500 C 91.726 146.235,92.175 145.200,92.363 145.200 C 92.550 145.200,92.938 144.632,93.226 143.938 C 94.319 141.299,101.323 135.200,103.261 135.200 C 103.574 135.200,104.544 134.827,105.415 134.371 C 109.121 132.432,116.960 131.670,133.800 131.611 C 151.007 131.551,150.876 131.583,156.193 126.132 C 157.517 124.774,160.281 121.936,162.335 119.824 C 164.389 117.712,166.639 115.696,167.335 115.344 C 168.031 114.992,168.870 114.472,169.200 114.189 C 169.530 113.906,170.610 113.460,171.600 113.198 C 172.590 112.936,173.610 112.550,173.866 112.340 C 174.929 111.470,180.594 111.280,203.200 111.360 L 227.000 111.444 230.303 112.689 M194.400 162.644 C 193.410 162.954,191.520 163.364,190.200 163.555 C 187.813 163.899,187.810 163.902,189.636 163.951 C 192.303 164.022,198.037 163.194,199.200 162.569 C 200.635 161.798,196.912 161.856,194.400 162.644 M203.157 162.433 C 204.510 162.975,211.664 164.008,213.697 163.956 C 215.111 163.920,214.857 163.815,212.200 163.335 C 210.440 163.017,208.829 162.587,208.620 162.379 C 208.411 162.170,206.881 162.011,205.220 162.025 C 202.880 162.045,202.415 162.137,203.157 162.433 M185.600 164.848 L 184.200 165.599 185.420 165.599 C 186.585 165.600,187.600 165.004,187.600 164.320 C 187.600 163.879,187.224 163.978,185.600 164.848 M215.600 164.386 C 215.600 164.951,216.760 165.454,218.774 165.762 C 219.852 165.927,220.763 166.341,221.097 166.817 C 221.398 167.247,222.030 167.600,222.500 167.600 C 223.890 167.600,221.047 165.712,219.184 165.397 C 218.338 165.254,217.434 164.882,217.174 164.569 C 216.639 163.923,215.600 163.803,215.600 164.386 M181.600 166.600 C 180.614 167.328,180.441 167.600,180.965 167.600 C 181.361 167.600,182.219 167.150,182.873 166.600 C 183.527 166.050,183.813 165.600,183.508 165.600 C 183.204 165.600,182.345 166.050,181.600 166.600 M264.450 165.882 C 264.147 166.002,263.608 166.348,263.250 166.651 C 262.893 166.954,261.845 167.843,260.923 168.627 C 255.755 173.018,255.538 180.565,260.440 185.338 C 264.055 188.856,269.982 190.030,273.127 187.850 C 273.961 187.273,274.813 186.795,275.022 186.789 C 275.596 186.773,278.132 184.299,278.716 183.184 C 279.000 182.643,279.492 181.750,279.810 181.200 C 281.784 177.787,278.479 167.600,275.397 167.600 C 275.220 167.600,274.486 167.150,273.764 166.600 C 272.478 165.618,266.310 165.143,264.450 165.882 M272.775 166.753 C 272.997 167.168,273.793 167.622,274.545 167.763 C 275.458 167.935,275.983 168.292,276.126 168.840 C 276.244 169.290,276.714 169.757,277.170 169.876 C 277.627 169.996,278.000 170.407,278.000 170.791 C 278.000 171.174,278.450 172.151,279.000 172.962 C 280.425 175.062,280.450 179.453,279.046 181.327 C 278.522 182.027,277.976 182.986,277.833 183.457 C 277.690 183.928,277.219 184.406,276.787 184.519 C 276.354 184.633,276.000 184.998,276.000 185.332 C 276.000 185.680,275.361 186.144,274.500 186.422 C 273.675 186.688,272.678 187.242,272.284 187.653 C 270.602 189.409,263.099 187.747,261.334 185.228 C 261.016 184.772,260.523 184.400,260.241 184.400 C 259.958 184.400,259.508 183.670,259.241 182.779 C 258.974 181.887,258.495 181.058,258.178 180.936 C 257.201 180.561,257.368 173.934,258.377 173.021 C 258.805 172.634,259.267 171.804,259.405 171.177 C 259.543 170.549,259.994 169.929,260.407 169.798 C 260.821 169.666,261.259 169.244,261.381 168.859 C 261.503 168.474,262.215 167.938,262.962 167.668 C 263.710 167.398,264.541 166.912,264.810 166.588 C 265.614 165.619,272.242 165.757,272.775 166.753 M177.600 168.600 C 176.614 169.328,176.441 169.600,176.965 169.600 C 177.361 169.600,178.219 169.150,178.873 168.600 C 179.527 168.050,179.813 167.600,179.508 167.600 C 179.204 167.600,178.345 168.050,177.600 168.600 M224.000 167.895 C 224.330 168.022,224.830 168.451,225.111 168.847 C 225.393 169.244,226.248 169.685,227.011 169.829 C 227.775 169.972,228.400 170.227,228.400 170.396 C 228.400 170.885,232.612 174.000,233.273 174.000 C 233.602 174.000,234.077 174.450,234.327 175.000 C 234.578 175.550,235.057 176.000,235.391 176.000 C 235.726 176.000,236.000 176.200,236.000 176.445 C 236.000 176.884,237.163 178.445,239.288 180.858 C 239.886 181.537,240.478 182.416,240.603 182.810 C 240.728 183.204,241.094 183.627,241.415 183.750 C 241.737 183.874,242.000 184.223,242.000 184.525 C 242.000 184.828,242.455 185.599,243.010 186.238 C 243.566 186.877,244.132 187.850,244.269 188.400 C 244.405 188.950,244.835 189.856,245.224 190.414 C 245.613 190.971,246.059 192.141,246.215 193.014 C 246.371 193.886,246.815 194.960,247.202 195.400 C 247.699 195.965,248.032 197.433,248.336 200.403 C 248.573 202.715,249.045 205.393,249.384 206.354 C 250.163 208.563,250.190 213.490,249.431 215.039 C 249.117 215.677,248.652 218.000,248.396 220.200 C 248.139 222.400,247.682 224.477,247.379 224.816 C 247.075 225.155,246.617 226.415,246.359 227.616 C 246.101 228.822,245.573 230.023,245.181 230.298 C 244.791 230.572,244.352 231.502,244.206 232.366 C 244.060 233.230,243.689 234.034,243.383 234.151 C 243.076 234.269,242.572 234.958,242.263 235.683 C 241.954 236.407,241.319 237.433,240.851 237.961 C 240.383 238.490,240.000 239.122,240.000 239.365 C 240.000 239.608,239.640 240.032,239.200 240.307 C 238.760 240.582,238.400 240.985,238.400 241.203 C 238.400 241.729,233.926 246.189,233.069 246.518 C 232.701 246.659,232.400 247.031,232.400 247.344 C 232.400 247.657,231.962 248.023,231.427 248.158 C 230.891 248.292,230.346 248.740,230.215 249.153 C 230.083 249.570,229.461 250.008,228.819 250.136 C 228.182 250.264,227.332 250.716,226.931 251.142 C 226.529 251.568,225.525 252.196,224.700 252.538 C 223.875 252.880,223.200 253.328,223.200 253.534 C 223.200 253.740,222.377 254.033,221.371 254.183 C 220.365 254.334,219.215 254.785,218.815 255.185 C 218.340 255.660,217.022 256.054,215.012 256.323 C 213.320 256.549,211.630 257.010,211.257 257.348 C 210.800 257.762,209.535 258.008,207.389 258.101 L 204.200 258.239 207.600 258.302 C 209.859 258.344,211.537 258.156,212.600 257.743 C 213.480 257.400,215.365 256.859,216.789 256.539 C 218.214 256.219,219.484 255.788,219.612 255.580 C 219.741 255.373,220.759 254.932,221.875 254.600 C 222.991 254.269,224.128 253.728,224.401 253.399 C 224.674 253.069,225.132 252.800,225.418 252.800 C 225.704 252.800,226.473 252.350,227.127 251.800 C 227.781 251.250,228.515 250.800,228.758 250.800 C 229.001 250.800,229.521 250.485,229.914 250.100 C 230.307 249.715,231.612 248.643,232.814 247.718 C 234.016 246.792,235.767 245.172,236.706 244.118 C 239.394 241.094,242.400 237.270,242.400 236.871 C 242.400 236.671,242.769 236.038,243.221 235.465 C 243.672 234.891,244.319 233.607,244.658 232.611 C 244.998 231.615,245.424 230.800,245.605 230.800 C 245.787 230.800,246.244 229.855,246.621 228.700 C 246.998 227.545,247.475 226.386,247.681 226.125 C 247.887 225.864,248.311 224.193,248.622 222.411 C 248.933 220.629,249.382 218.808,249.619 218.364 C 250.273 217.143,250.569 208.173,250.041 205.600 C 249.793 204.390,249.295 201.690,248.935 199.600 C 248.574 197.510,248.059 195.530,247.790 195.200 C 247.521 194.870,247.085 193.880,246.821 193.000 C 244.861 186.471,237.350 176.158,231.817 172.400 C 231.007 171.850,229.836 170.995,229.215 170.500 C 228.593 170.005,227.920 169.600,227.720 169.600 C 227.519 169.600,226.745 169.150,226.000 168.600 C 225.255 168.050,224.365 167.614,224.022 167.632 C 223.483 167.659,223.480 167.694,224.000 167.895 M174.609 170.390 C 174.216 170.824,173.531 171.295,173.086 171.436 C 172.641 171.577,171.417 172.527,170.366 173.546 C 169.315 174.566,168.265 175.580,168.033 175.800 C 165.971 177.752,163.529 180.611,162.225 182.600 C 161.360 183.920,160.466 185.125,160.238 185.278 C 160.010 185.431,159.971 185.701,160.152 185.878 C 160.333 186.055,160.778 185.791,161.141 185.291 C 161.503 184.791,162.295 183.731,162.900 182.936 C 163.505 182.141,164.000 181.176,164.000 180.792 C 164.000 180.408,164.373 179.996,164.830 179.876 C 165.286 179.757,165.757 179.286,165.876 178.830 C 165.996 178.373,166.346 178.000,166.655 178.000 C 166.964 178.000,167.413 177.570,167.653 177.044 C 167.892 176.518,168.518 175.892,169.044 175.653 C 169.570 175.413,170.000 174.964,170.000 174.655 C 170.000 174.346,170.373 173.996,170.830 173.876 C 171.286 173.757,171.757 173.286,171.876 172.830 C 171.996 172.373,172.334 172.000,172.628 172.000 C 173.554 172.000,175.024 171.173,175.525 170.372 C 176.154 169.364,175.526 169.377,174.609 170.390 M194.740 178.760 C 193.498 178.894,192.148 179.295,191.740 179.651 C 191.333 180.007,190.315 180.422,189.477 180.572 C 188.639 180.722,187.654 181.195,187.288 181.622 C 186.922 182.050,186.331 182.400,185.976 182.400 C 184.398 182.400,175.041 191.099,174.561 193.012 C 174.416 193.591,174.052 194.159,173.752 194.274 C 173.453 194.389,172.995 195.229,172.735 196.141 C 172.475 197.054,172.033 198.073,171.754 198.406 C 171.131 199.150,170.423 202.105,170.410 204.020 C 170.404 204.801,170.175 205.665,169.900 205.940 C 169.271 206.569,169.237 213.670,169.859 214.454 C 170.096 214.754,170.406 216.298,170.547 217.884 C 170.800 220.735,171.430 222.800,172.046 222.800 C 172.221 222.800,172.479 223.414,172.620 224.165 C 172.761 224.916,173.212 225.891,173.622 226.331 C 174.032 226.772,174.483 227.591,174.624 228.152 C 174.764 228.712,175.204 229.274,175.600 229.400 C 175.996 229.526,176.432 230.072,176.568 230.614 C 176.704 231.156,177.086 231.600,177.416 231.600 C 177.747 231.600,178.222 232.050,178.473 232.600 C 178.723 233.150,179.174 233.600,179.474 233.600 C 179.774 233.600,180.191 234.050,180.400 234.600 C 180.609 235.150,181.048 235.600,181.376 235.600 C 181.704 235.600,182.165 235.960,182.400 236.400 C 182.635 236.840,183.083 237.200,183.393 237.200 C 183.704 237.200,184.445 237.650,185.038 238.200 C 185.632 238.751,186.811 239.388,187.659 239.616 C 188.506 239.844,189.200 240.186,189.200 240.376 C 189.200 240.919,191.551 241.600,193.426 241.600 C 194.365 241.600,195.197 241.790,195.274 242.021 C 195.681 243.242,204.730 243.671,206.857 242.571 C 208.709 241.613,207.963 241.446,204.408 242.023 C 201.914 242.428,200.754 242.443,199.292 242.089 C 198.251 241.837,196.320 241.514,195.000 241.370 C 188.532 240.668,177.414 232.796,174.767 227.045 C 174.351 226.140,173.844 225.130,173.640 224.800 C 170.263 219.320,169.164 204.404,171.828 200.200 C 172.107 199.760,172.546 198.590,172.803 197.600 C 173.061 196.610,173.579 195.440,173.954 195.000 C 174.329 194.560,174.896 193.683,175.212 193.050 C 175.863 191.751,182.502 184.800,183.092 184.800 C 183.303 184.800,183.986 184.361,184.610 183.825 C 185.234 183.289,186.207 182.735,186.772 182.594 C 187.337 182.453,188.070 182.108,188.400 181.827 C 190.123 180.359,195.768 179.041,201.400 178.790 L 207.000 178.540 202.000 178.529 C 199.250 178.523,195.983 178.627,194.740 178.760 M208.298 179.190 C 209.011 179.359,209.821 179.680,210.098 179.903 C 210.374 180.125,211.230 180.430,212.000 180.579 C 213.948 180.956,215.600 181.631,215.600 182.049 C 215.600 182.242,215.834 182.400,216.120 182.400 C 217.696 182.400,227.200 190.230,227.200 191.528 C 227.200 191.723,227.634 192.351,228.164 192.924 C 228.695 193.496,229.249 194.512,229.396 195.182 C 229.543 195.852,229.814 196.400,229.999 196.400 C 230.183 196.400,230.650 197.255,231.036 198.300 C 231.422 199.345,231.867 200.380,232.024 200.600 C 233.575 202.765,233.618 217.020,232.083 219.794 C 231.597 220.671,231.197 221.751,231.194 222.194 C 231.191 222.637,230.966 223.381,230.694 223.846 C 230.422 224.311,229.776 225.467,229.257 226.414 C 228.168 228.402,224.832 232.580,223.269 233.910 C 220.409 236.346,218.673 237.600,218.162 237.600 C 217.853 237.600,217.600 237.755,217.600 237.945 C 217.600 238.404,211.821 240.852,209.800 241.250 C 208.481 241.509,208.636 241.539,210.683 241.422 C 212.388 241.324,213.535 241.016,214.345 240.439 C 214.993 239.978,215.750 239.600,216.027 239.600 C 216.643 239.600,220.279 237.337,221.463 236.216 C 221.938 235.767,223.063 234.772,223.963 234.003 C 224.863 233.235,225.600 232.493,225.600 232.354 C 225.600 232.215,226.337 231.313,227.238 230.351 C 228.139 229.388,229.147 227.976,229.479 227.214 C 229.811 226.451,230.346 225.635,230.668 225.400 C 230.990 225.164,231.354 224.168,231.478 223.186 C 231.604 222.188,232.077 220.989,232.551 220.467 C 233.925 218.958,233.852 202.265,232.460 199.600 C 230.858 196.534,230.300 195.451,229.561 193.969 C 229.169 193.182,228.567 192.305,228.224 192.020 C 227.881 191.735,227.600 191.290,227.600 191.031 C 227.600 190.281,221.964 184.806,220.923 184.545 C 220.404 184.415,219.805 183.983,219.593 183.587 C 219.380 183.190,218.665 182.746,218.003 182.601 C 217.341 182.455,216.800 182.210,216.800 182.054 C 216.800 181.528,214.482 180.400,213.401 180.400 C 212.810 180.400,211.869 180.040,211.309 179.600 C 210.636 179.071,209.735 178.814,208.646 178.841 L 207.000 178.882 208.298 179.190 M158.684 188.540 C 158.088 189.717,157.600 190.845,157.600 191.046 C 157.600 191.247,157.259 192.048,156.842 192.826 C 154.086 197.968,152.358 216.428,154.309 219.879 C 154.582 220.362,155.069 222.138,155.392 223.825 C 155.715 225.512,156.152 227.102,156.364 227.356 C 156.575 227.611,157.049 228.715,157.416 229.810 C 157.783 230.904,158.335 232.084,158.642 232.431 C 158.949 232.779,159.200 233.235,159.200 233.445 C 159.200 233.856,161.424 237.437,162.899 239.400 C 164.089 240.984,171.978 248.864,173.000 249.489 C 173.440 249.758,174.741 250.613,175.890 251.389 C 177.040 252.165,178.156 252.800,178.370 252.800 C 178.585 252.800,178.915 253.077,179.105 253.416 C 179.295 253.755,180.394 254.282,181.548 254.586 C 182.701 254.891,183.897 255.348,184.204 255.604 C 184.512 255.859,185.807 256.305,187.082 256.594 C 188.357 256.884,190.120 257.401,191.000 257.743 C 191.973 258.121,193.698 258.344,195.400 258.312 L 198.200 258.259 195.600 258.029 C 194.170 257.903,192.460 257.510,191.800 257.156 C 191.140 256.801,189.525 256.390,188.211 256.242 C 186.760 256.078,185.503 255.682,185.011 255.234 C 184.565 254.828,183.305 254.367,182.211 254.210 C 180.948 254.029,180.027 253.646,179.688 253.162 C 179.395 252.743,178.964 252.400,178.730 252.400 C 178.497 252.400,177.691 251.860,176.939 251.200 C 176.187 250.540,175.262 250.000,174.882 250.000 C 174.503 250.000,173.968 249.640,173.693 249.200 C 173.418 248.760,173.009 248.400,172.784 248.400 C 172.277 248.400,164.000 240.133,164.000 239.626 C 164.000 239.424,163.550 238.904,163.000 238.471 C 162.450 238.039,162.000 237.420,162.000 237.096 C 162.000 236.773,161.637 236.047,161.194 235.483 C 159.976 233.935,158.114 230.237,157.796 228.734 C 157.641 228.000,157.197 227.040,156.809 226.600 C 156.363 226.093,156.021 224.846,155.876 223.198 C 155.751 221.766,155.281 219.786,154.833 218.798 C 153.752 216.414,153.585 204.371,154.613 202.903 C 154.950 202.421,155.432 200.536,155.685 198.714 C 155.937 196.891,156.394 195.102,156.700 194.738 C 157.005 194.374,157.514 193.217,157.830 192.167 C 158.146 191.117,158.671 189.963,158.997 189.603 C 159.548 188.994,160.306 186.400,159.934 186.400 C 159.842 186.400,159.280 187.363,158.684 188.540 " stroke="none" fill="#f4855f" fill-rule="evenodd"></path></g></svg>