<svg width="25" height="24" viewBox="0 0 25 24" fill="none" xmlns="http://www.w3.org/2000/svg">
<path d="M9.00049 11.9656V4.30004C9.00049 2.47748 10.478 1 12.3005 1C14.1231 1 15.6006 2.47748 15.6006 4.30004V5.40319" stroke="#3D3D3D" stroke-width="2" stroke-linecap="round"/>
<path d="M15.6006 12.002V19.7001C15.6006 21.5227 14.1231 23.0002 12.3005 23.0002C10.478 23.0002 9.00049 21.5227 9.00049 19.7001V18.5836" stroke="#3D3D3D" stroke-width="2" stroke-linecap="round"/>
<path d="M12.3006 15.2993H4.59174C2.77399 15.2993 1.30042 13.8218 1.30042 11.9993C1.30042 10.1767 2.77399 8.69922 4.59174 8.69922H5.6942" stroke="#3D3D3D" stroke-width="2" stroke-linecap="round"/>
<path d="M12.3005 8.69922H19.9945C21.8204 8.69922 23.3007 10.1767 23.3007 11.9993C23.3007 13.8218 21.8204 15.2993 19.9945 15.2993H18.9371" stroke="#3D3D3D" stroke-width="2" stroke-linecap="round"/>
</svg>
