<svg width="39" height="38" viewBox="0 0 39 38" fill="none" xmlns="http://www.w3.org/2000/svg">
<path d="M38.3102 18.511C38.3102 28.7342 29.9387 37.0219 19.6121 37.0219C9.28546 37.0219 0.914062 28.7342 0.914062 18.511C0.914062 8.28764 9.28546 0 19.6121 0C29.9387 0 38.3102 8.28764 38.3102 18.511Z" fill="white"/>
<path fill-rule="evenodd" clip-rule="evenodd" d="M19.6121 37.0219C29.9387 37.0219 38.3102 28.7342 38.3102 18.511C38.3102 8.28764 29.9387 0 19.6121 0C9.28546 0 0.914062 8.28764 0.914062 18.511C0.914062 28.7342 9.28546 37.0219 19.6121 37.0219ZM17.1692 25.6299L25.9951 20.4713C27.4567 19.6168 27.4567 17.4051 25.9951 16.5507L17.1692 11.392C15.7486 10.5616 14.0027 11.6424 14.0027 13.3523V23.6696C14.0027 25.3795 15.7486 26.4603 17.1692 25.6299Z" fill="#F47D57"/>
</svg>
