<svg width="100" height="100" viewBox="0 0 100 100" fill="none" xmlns="http://www.w3.org/2000/svg">
<path d="M98.3215 45.6718L83.166 31.0237V14.1028C83.166 11.0433 80.6008 8.56375 77.4306 8.56375C74.2677 8.56375 71.7025 11.0433 71.7025 14.1028V19.9443L60.418 9.03726C54.8388 3.64785 45.1386 3.65741 39.5721 9.04701L1.67774 45.6718C-0.559247 47.8381 -0.559247 51.3435 1.67774 53.5065C3.91574 55.6723 7.54959 55.6723 9.78678 53.5065L47.6775 16.8808C48.9119 15.694 51.0875 15.694 52.3154 16.8773L90.2126 53.5065C91.3364 54.5895 92.8015 55.1282 94.2661 55.1282C95.7339 55.1282 97.2014 54.589 98.3217 53.5065C100.559 51.3437 100.559 47.8383 98.3215 45.6718Z" fill="#393939"/>
<path d="M51.9909 27.3955C50.8899 26.332 49.1073 26.332 48.0096 27.3955L14.6776 59.6019C14.1514 60.1103 13.853 60.8045 13.853 61.5289V85.019C13.853 90.5311 18.4772 95.0002 24.1801 95.0002H40.6828V70.2987H59.3141V95.0002H75.8169C81.5196 95.0002 86.1438 90.5311 86.1438 85.0192V61.5289C86.1438 60.8045 85.8481 60.1103 85.3192 59.6019L51.9909 27.3955Z" fill="#393939"/>
</svg>
