<svg xmlns="http://www.w3.org/2000/svg" viewBox="0 0 122.51 119.14"><defs><style>.cls-1{fill:#f05523;stroke:#f05523;stroke-width:2px;}.cls-2{fill:#fff;}</style></defs><g id="katman_2" data-name="katman 2"><g id="katman_1-2" data-name="katman 1"><path class="cls-1" d="M10.46,66.78H57.91a32.4,32.4,0,0,1,52.68-5.85,9.41,9.41,0,0,0,.72-3.61V18.71a9.49,9.49,0,0,0-9.46-9.46h-33C68.74,4.69,63.11,1,56.15,1S43.56,4.69,43.48,9.25h-33A9.49,9.49,0,0,0,1,18.71V57.32A9.49,9.49,0,0,0,10.46,66.78Z"/><path class="cls-1" d="M53.91,82.37a32.44,32.44,0,0,1,1-7.87H7.46A6.48,6.48,0,0,1,1,68v18a9.49,9.49,0,0,0,9.46,9.46H56.71A32.36,32.36,0,0,1,53.91,82.37Z"/><path class="cls-1" d="M120.45,110.85l-13-13a26.14,26.14,0,1,0-6.32,6.13l13.13,13.13a3.62,3.62,0,0,0,5.13,0l1.1-1.09A3.65,3.65,0,0,0,120.45,110.85ZM69.05,82.37A17.26,17.26,0,1,1,86.31,99.63,17.26,17.26,0,0,1,69.05,82.37Z"/><circle class="cls-2" cx="56.15" cy="54.57" r="4.33"/></g></g></svg>