<svg xmlns="http://www.w3.org/2000/svg" viewBox="0 0 121.51 118.14"><defs><style>.cls-1{stroke:#000;stroke-miterlimit:10;}.cls-2{fill:#fff;}</style></defs><g id="katman_2" data-name="katman 2"><g id="katman_1-2" data-name="katman 1"><path class="cls-1" d="M10,66.28H57.41a32.4,32.4,0,0,1,52.68-5.85,9.41,9.41,0,0,0,.72-3.61V18.21a9.49,9.49,0,0,0-9.46-9.46h-33C68.24,4.19,62.61.5,55.65.5S43.06,4.19,43,8.75H10A9.49,9.49,0,0,0,.5,18.21V56.82A9.49,9.49,0,0,0,10,66.28Z"/><path class="cls-1" d="M53.41,81.87a32.44,32.44,0,0,1,1-7.87H7A6.48,6.48,0,0,1,.5,67.54v18A9.49,9.49,0,0,0,10,95.05H56.21A32.36,32.36,0,0,1,53.41,81.87Z"/><path class="cls-1" d="M120,110.35l-13-13a26.14,26.14,0,1,0-6.32,6.13l13.13,13.13a3.62,3.62,0,0,0,5.13,0l1.1-1.09A3.65,3.65,0,0,0,120,110.35ZM68.55,81.87A17.26,17.26,0,1,1,85.81,99.13,17.26,17.26,0,0,1,68.55,81.87Z"/><circle class="cls-2" cx="55.65" cy="54.07" r="4.33"/></g></g></svg>