<svg width="26" height="23" viewBox="0 0 26 23" fill="none" xmlns="http://www.w3.org/2000/svg">
<path fill-rule="evenodd" clip-rule="evenodd" d="M25.3004 2.30004C25.3004 1.28338 23.9837 0.921753 23.1125 0.682514C23.0325 0.660537 22.9562 0.639584 22.8851 0.619263C21.7971 0.308412 20.2521 0 18.4003 0C16.4179 0 14.7834 0.660111 13.661 1.30155C13.4893 1.39965 13.3087 1.53518 13.1455 1.65767C12.93 1.8195 12.7449 1.95858 12.6502 1.95858C12.5556 1.95858 12.3704 1.8195 12.1549 1.65767C11.9917 1.53518 11.8112 1.39965 11.6395 1.30155C10.517 0.660111 8.8825 0 6.90012 0C5.04834 0 3.50331 0.308412 2.41536 0.619263C2.34695 0.638802 2.27365 0.658984 2.19672 0.680168C1.32942 0.918992 0 1.28506 0 2.30004V17.2503C0 17.6489 0.206371 18.019 0.54542 18.2286C1.0848 18.5619 1.79661 18.2701 2.42739 18.0116C2.64745 17.9213 2.85765 17.8352 3.04723 17.781C3.97182 17.5169 5.30185 17.2503 6.90012 17.2503C8.35064 17.2503 9.43653 17.7288 10.2506 18.2298C10.4597 18.3585 10.671 18.5226 10.8879 18.6909C11.4241 19.1074 11.9945 19.5503 12.6502 19.5503C13.3078 19.5503 13.8753 19.109 14.4106 18.6928C14.6277 18.5238 14.8395 18.3591 15.0499 18.2298C15.864 17.7288 16.9498 17.2503 18.4003 17.2503C19.9986 17.2503 21.3286 17.5169 22.2532 17.781C22.4515 17.8377 22.6668 17.9286 22.8902 18.023C23.5114 18.2853 24.1956 18.5743 24.755 18.2286C25.094 18.019 25.3004 17.6489 25.3004 17.2503V2.30004ZM2.68244 2.94116C2.45142 3.0149 2.30004 3.23245 2.30004 3.47497V14.8342C2.30004 15.2182 2.66907 15.4946 3.04234 15.4046C4.06621 15.1581 5.37953 14.9503 6.90012 14.9503C8.92771 14.9503 10.4415 15.6396 11.5002 16.2982V3.97409C11.2689 3.79039 10.9294 3.54488 10.4984 3.29853C9.60834 2.78995 8.3678 2.30004 6.90012 2.30004C5.07744 2.30004 3.59944 2.64846 2.68244 2.94116ZM18.4003 14.9503C16.3727 14.9503 14.8589 15.6396 13.8002 16.2982V3.97409C14.0315 3.79039 14.371 3.54488 14.802 3.29853C15.6921 2.78995 16.9327 2.30004 18.4003 2.30004C20.223 2.30004 21.701 2.64846 22.618 2.94116C22.8491 3.0149 23.0004 3.23245 23.0004 3.47497V14.8342C23.0004 15.2182 22.6314 15.4946 22.2581 15.4046C21.2342 15.1581 19.9209 14.9503 18.4003 14.9503Z" fill="#F05523"/>
<path d="M1.25174 21.169C0.992131 20.5894 1.2516 19.909 1.83125 19.6493C2.36974 19.41 2.92721 19.2089 3.48789 19.0289C4.41812 18.7305 5.70434 18.3989 6.90138 18.3989C8.24333 18.3989 9.3887 19.1222 10.2188 19.6464C10.2614 19.6733 10.3032 19.6996 10.3442 19.7254C11.3114 20.3334 11.9619 20.699 12.6515 20.699C13.3402 20.699 13.9869 20.3343 14.9529 19.7258C14.9926 19.7009 15.0329 19.6753 15.0741 19.6492C15.905 19.1238 17.0511 18.3989 18.4016 18.3989C19.6051 18.3989 20.891 18.7302 21.8208 19.0291C22.6557 19.2976 23.2751 19.563 23.4343 19.6329C24.0162 19.8903 24.3176 20.5774 24.0503 21.171C23.7914 21.7462 23.1004 22.0014 22.5272 21.7465C22.0682 21.5441 21.5942 21.3723 21.1168 21.2188C20.2579 20.9427 19.2439 20.699 18.4016 20.699C17.7586 20.699 17.1408 21.0654 16.1095 21.7157C15.2546 22.2548 14.0744 22.999 12.6515 22.999C11.2276 22.999 10.0437 22.2539 9.1863 21.7143C8.15288 21.0639 7.53648 20.699 6.90138 20.699C6.06621 20.699 5.0524 20.9424 4.19064 21.219C3.71051 21.373 3.23252 21.5443 2.77109 21.7487C2.19148 22.008 1.5113 21.7486 1.25174 21.169Z" fill="#F05523"/>
</svg>
