<svg width="15" height="12" viewBox="0 0 15 12" fill="none" xmlns="http://www.w3.org/2000/svg">
<path d="M12.915 5.99999L14.8104 4.10449C15.0631 3.8518 15.0631 3.44217 14.8104 3.18948C14.5577 2.93684 14.1481 2.93684 13.8954 3.18948L11.9999 5.08498L10.1045 3.18948C9.85183 2.93684 9.44221 2.93684 9.18948 3.18948C8.93684 3.44217 8.93684 3.8518 9.18948 4.10449L11.085 5.99999L9.18963 7.89549C8.937 8.14819 8.937 8.55781 9.18963 8.81051C9.31597 8.9368 9.4815 9 9.64707 9C9.81265 9 9.97823 8.9368 10.1046 8.81051L12.0001 6.91501L13.8955 8.81051C14.0218 8.9368 14.1875 9 14.353 9C14.5186 9 14.6841 8.9368 14.8105 8.81051C15.0632 8.55781 15.0632 8.14819 14.8105 7.89549L12.915 5.99999Z" fill="white"/>
<path d="M7.31816 12C7.31816 11.4419 7.31816 11.0136 7.31816 10.6258V1.39419C7.31816 1.00641 7.28571 1.25466 7.28571 0C6.85714 0.195498 6.1271 0.80964 5.81305 1.09902L3.19984 3.51254C3.15836 3.54728 3.10503 3.56463 3.04576 3.56463H1.28587C0.450337 3.56463 0 4.01029 0 4.87848V7.12414C0 7.99233 0.450337 8.43799 1.28587 8.43799H3.04576C3.10503 8.43799 3.15836 8.45533 3.19984 8.49008L5.81305 10.9267C6.09747 11.1872 7 11.8605 7.31816 12Z" fill="white"/>
</svg>
