<svg width="12" height="10" viewBox="0 0 12 10" fill="none" xmlns="http://www.w3.org/2000/svg">
<path d="M7.73402 3.84125L5.09066 2.20489C5.0243 2.16377 4.94716 2.14016 4.86747 2.13658C4.78779 2.13299 4.70855 2.14957 4.63822 2.18453C4.56788 2.2195 4.50909 2.27154 4.46812 2.3351C4.42716 2.39867 4.40554 2.47137 4.40559 2.54545V5.81818C4.40554 5.89226 4.42716 5.96496 4.46812 6.02853C4.50909 6.0921 4.56788 6.14414 4.63822 6.1791C4.70855 6.21407 4.78779 6.23064 4.86747 6.22706C4.94716 6.22347 5.0243 6.19986 5.09066 6.15875L7.73402 4.52239C7.79445 4.48504 7.84401 4.43441 7.87829 4.375C7.91256 4.31558 7.9305 4.24922 7.9305 4.18182C7.9305 4.11441 7.91256 4.04805 7.87829 3.98864C7.84401 3.92922 7.79445 3.87859 7.73402 3.84125ZM5.28671 5.05369V3.3125L6.6954 4.18182L5.28671 5.05369ZM10.5734 0.5H0.881119C0.647432 0.5 0.423316 0.586201 0.258074 0.73964C0.0928319 0.893079 0 1.10119 0 1.31818V7.04545C0 7.26245 0.0928319 7.47056 0.258074 7.624C0.423316 7.77744 0.647432 7.86364 0.881119 7.86364H10.5734C10.8071 7.86364 11.0312 7.77744 11.1965 7.624C11.3617 7.47056 11.4545 7.26245 11.4545 7.04545V1.31818C11.4545 1.10119 11.3617 0.893079 11.1965 0.73964C11.0312 0.586201 10.8071 0.5 10.5734 0.5ZM10.5734 7.04545H0.881119V1.31818H10.5734V7.04545ZM11.4545 9.09091C11.4545 9.19941 11.4081 9.30346 11.3255 9.38018C11.2429 9.4569 11.1308 9.5 11.014 9.5H0.440559C0.323716 9.5 0.211658 9.4569 0.129037 9.38018C0.0464159 9.30346 0 9.19941 0 9.09091C0 8.98241 0.0464159 8.87836 0.129037 8.80164C0.211658 8.72492 0.323716 8.68182 0.440559 8.68182H11.014C11.1308 8.68182 11.2429 8.72492 11.3255 8.80164C11.4081 8.87836 11.4545 8.98241 11.4545 9.09091Z" fill="#5B587D"/>
</svg>
