<svg width="11" height="10" viewBox="0 0 11 10" fill="none" xmlns="http://www.w3.org/2000/svg">
<path d="M5.45312 10C2.69163 10 0.453125 7.7615 0.453125 5C0.453125 2.2385 2.69163 0 5.45312 0C8.21462 0 10.4531 2.2385 10.4531 5C10.4531 7.7615 8.21462 10 5.45312 10ZM5.45312 9C6.51399 9 7.53141 8.57857 8.28155 7.82843C9.0317 7.07828 9.45312 6.06087 9.45312 5C9.45312 3.93913 9.0317 2.92172 8.28155 2.17157C7.53141 1.42143 6.51399 1 5.45312 1C4.39226 1 3.37484 1.42143 2.6247 2.17157C1.87455 2.92172 1.45312 3.93913 1.45312 5C1.45312 6.06087 1.87455 7.07828 2.6247 7.82843C3.37484 8.57857 4.39226 9 5.45312 9ZM5.95312 5H7.95312V6H4.95312V2.5H5.95312V5Z" fill="#5B587D"/>
</svg>
