<svg width="17" height="19" viewBox="0 0 17 19" fill="none" xmlns="http://www.w3.org/2000/svg">
<path d="M13.5075 0C11.9766 0 10.806 1.17065 10.806 2.70149C10.806 2.88159 10.806 3.06169 10.896 3.24179L4.41244 6.93383C3.96219 6.57363 3.33184 6.30348 2.70149 6.30348C1.17065 6.30348 0 7.47413 0 9.00497C0 10.5358 1.17065 11.7065 2.70149 11.7065C3.33184 11.7065 3.96219 11.4363 4.41244 11.0761L10.806 14.8582C10.806 15.0383 10.7159 15.2184 10.7159 15.3985C10.7159 16.9294 11.8866 18.1 13.4174 18.1C14.9483 18.1 16.1189 16.9294 16.1189 15.3985C16.1189 13.8677 14.9483 12.697 13.4174 12.697C12.7871 12.697 12.1567 12.9672 11.7065 13.3274L5.31293 9.54527C5.40298 9.36517 5.40298 9.18507 5.40298 9.00497C5.40298 8.82488 5.40298 8.64478 5.31293 8.46468L11.7065 4.68259C12.2468 5.13284 12.8771 5.40298 13.5075 5.40298C15.0383 5.40298 16.209 4.23234 16.209 2.70149C16.209 1.17065 15.0383 0 13.5075 0Z" fill="white"/>
</svg>
