<svg width="24" height="22" viewBox="0 0 24 22" fill="none" xmlns="http://www.w3.org/2000/svg">
<path d="M3.72824 6.92708C4.85247 6.05349 5.78511 6.65597 7.02983 8.0971C7.16961 8.25977 7.35758 8.06939 7.46482 7.97661C7.57086 7.88262 9.21322 6.40413 9.29395 6.33665C9.37348 6.26556 9.46988 6.13302 9.34336 5.98481C9.03859 5.60783 8.74012 5.2258 8.44807 4.83889C6.2695 1.98916 14.4078 0.0564001 13.1583 0.0262761C12.522 0.00940666 9.96994 -0.0207173 9.58796 0.0214563C8.042 0.184126 6.10081 1.62887 5.12358 2.30245C3.84512 3.17725 3.36796 3.69056 3.28963 3.76165C2.92815 4.07735 3.2318 4.80635 2.5763 5.38112C1.88345 5.98722 1.45087 5.52813 1.04961 5.87997C0.850795 6.0559 0.294103 6.47281 0.135048 6.61138C-0.0252113 6.75237 -0.0541304 6.98974 0.109744 7.17892C0.109744 7.17892 1.63281 8.86105 1.76054 9.01046C1.88706 9.15747 2.23168 9.28519 2.44375 9.09601C2.65703 8.90804 3.20529 8.42967 3.29686 8.34532C3.39085 8.2658 3.23662 7.30785 3.72824 6.92708ZM10.6062 7.55005C10.4616 7.38256 10.282 7.37774 10.1278 7.51511L8.39987 9.02372C8.33316 9.08425 8.29251 9.16828 8.28644 9.25815C8.28037 9.34802 8.30937 9.43675 8.36734 9.5057L18.3613 20.8793C18.595 21.148 18.9999 21.1757 19.2662 20.9432L20.435 19.9636C20.5637 19.8503 20.6424 19.6908 20.6542 19.5198C20.6659 19.3487 20.6097 19.18 20.4977 19.0502L10.6062 7.55005ZM23.9318 2.70972C23.8426 2.11447 23.5342 2.23858 23.3739 2.49042C23.2137 2.74467 22.5051 3.81829 22.2135 4.30509C21.9243 4.78708 21.211 5.7402 19.8831 4.79912C18.4999 3.8219 18.9806 3.13989 19.2216 2.6808C19.4638 2.2193 20.2073 0.925177 20.3145 0.764917C20.4218 0.602247 20.2964 0.129903 19.8675 0.327516C19.4373 0.52513 16.8274 1.5626 16.4659 3.05073C16.096 4.56416 16.7756 5.91733 15.4417 7.26086L13.8234 8.9478L15.4489 10.8348L17.4419 8.94298C17.9166 8.46582 18.9312 8.00191 19.8494 8.21157C21.8171 8.6562 22.8907 7.91756 23.5378 6.69573C24.1186 5.60404 24.0222 3.30497 23.9318 2.70972ZM3.25108 19.1731C3.13055 19.2945 3.06291 19.4587 3.06291 19.6298C3.06291 19.8009 3.13055 19.965 3.25108 20.0865L4.39699 21.2071C4.64763 21.4589 5.04526 21.3529 5.29589 21.101L11.2086 15.2883L9.39758 13.223L3.25108 19.1731Z" fill="black"/>
</svg>
