<svg width="18" height="12" viewBox="0 0 18 12" fill="none" xmlns="http://www.w3.org/2000/svg">
<path d="M14.743 11.7023C14.9622 11.847 15.2526 11.7891 15.4244 11.5518C16.5088 10.0354 17.1429 8.08493 17.1429 6.01867C17.1429 3.95243 16.5029 1.99615 15.4244 0.47972C15.2526 0.242431 14.9622 0.184544 14.743 0.335032C14.5178 0.485521 14.4822 0.774896 14.6541 1.01799C15.608 2.38972 16.2006 4.14921 16.2006 6.01867C16.2006 7.88815 15.6259 9.67078 14.6541 11.0193C14.4822 11.2567 14.5178 11.546 14.743 11.7023ZM7.31816 12C7.31816 11.4419 7.31816 11.0136 7.31816 10.6258V1.39419C7.31816 1.00641 7.28571 1.25466 7.28571 0C6.85714 0.195498 6.1271 0.80964 5.81305 1.09902L3.19984 3.51254C3.15836 3.54728 3.10503 3.56463 3.04576 3.56463H1.28587C0.450337 3.56463 0 4.01029 0 4.87848V7.12414C0 7.99233 0.450337 8.43799 1.28587 8.43799H3.04576C3.10503 8.43799 3.15836 8.45533 3.19984 8.49008L5.81305 10.9267C6.09747 11.1872 7 11.8605 7.31816 12ZM12.3549 10.1222C12.586 10.2727 12.8705 10.2148 13.0364 9.98333C13.8185 8.91837 14.2689 7.50035 14.2689 6.01867C14.2689 4.53121 13.8245 3.11319 13.0364 2.04823C12.8645 1.82251 12.586 1.76463 12.3549 1.91512C12.1297 2.0656 12.0942 2.34921 12.272 2.59807C12.9178 3.52411 13.3149 4.73956 13.3149 6.01867C13.3149 7.29777 12.9297 8.52482 12.266 9.43929C12.1001 9.68815 12.1297 9.97176 12.3549 10.1222ZM9.99061 8.55954C10.1921 8.69842 10.4824 8.65214 10.6543 8.42642C11.1165 7.8187 11.395 6.92737 11.395 6.01867C11.395 5.10999 11.1106 4.22447 10.6543 3.60514C10.4824 3.37942 10.198 3.33314 9.99061 3.47202C9.72989 3.63988 9.70025 3.93506 9.88987 4.18972C10.2336 4.64116 10.4409 5.32994 10.4409 6.01867C10.4409 6.70742 10.2217 7.39617 9.88396 7.85341C9.70616 8.1023 9.73583 8.38591 9.99061 8.55954Z" fill="white"/>
</svg>
