<svg width="25" height="24" viewBox="0 0 25 24" fill="none" xmlns="http://www.w3.org/2000/svg">
<path d="M9.36664 11.9656V4.30005C9.36664 2.47748 10.8441 1 12.6667 1C14.4893 1 15.9667 2.47748 15.9667 4.30005V5.40321" stroke="#F05523" stroke-width="2" stroke-linecap="round"/>
<path d="M15.9667 12.002V19.7002C15.9667 21.5227 14.4893 23.0002 12.6667 23.0002C10.8441 23.0002 9.36664 21.5227 9.36664 19.7002V18.5836" stroke="#F05523" stroke-width="2" stroke-linecap="round"/>
<path d="M12.6667 15.2993H4.95784C3.14008 15.2993 1.6665 13.8218 1.6665 11.9993C1.6665 10.1767 3.14008 8.69922 4.95784 8.69922H6.06031" stroke="#F05523" stroke-width="2" stroke-linecap="round"/>
<path d="M12.6667 8.69922H20.3607C22.1866 8.69922 23.6669 10.1767 23.6669 11.9993C23.6669 13.8218 22.1866 15.2993 20.3607 15.2993H19.3033" stroke="#F05523" stroke-width="2" stroke-linecap="round"/>
</svg>
