<svg width="25" height="19" viewBox="0 0 25 19" fill="none" xmlns="http://www.w3.org/2000/svg">
<path d="M3.37109 18.8066H21.1934C23.0977 18.8066 24.0742 17.8301 24.0742 15.9551V5.70117C24.0742 3.81641 23.0977 2.83984 21.1934 2.83984H18.332C17.5508 2.83984 17.3262 2.73242 16.8574 2.20508L16.0469 1.29688C15.5391 0.75 15.0898 0.505859 14.1133 0.505859H10.3047C9.32812 0.505859 8.87891 0.75 8.38086 1.29688L7.56055 2.20508C7.10156 2.72266 6.86719 2.83984 6.08594 2.83984H3.37109C1.4668 2.83984 0.490234 3.81641 0.490234 5.70117V15.9551C0.490234 17.8301 1.4668 18.8066 3.37109 18.8066ZM12.2871 16.1016C9.30859 16.1016 6.91602 13.709 6.91602 10.7207C6.91602 7.73242 9.30859 5.34961 12.2871 5.34961C15.2656 5.34961 17.6484 7.73242 17.6484 10.7207C17.6484 13.709 15.2559 16.1016 12.2871 16.1016ZM18.2832 7.14648C18.2832 6.51172 18.8398 5.94531 19.5039 5.94531C20.1387 5.94531 20.6953 6.51172 20.6953 7.14648C20.6953 7.81055 20.1387 8.35742 19.5039 8.34766C18.8398 8.34766 18.2832 7.83008 18.2832 7.14648ZM12.2871 14.9395C14.6113 14.9395 16.4863 13.0547 16.4863 10.7207C16.4863 8.38672 14.6113 6.50195 12.2871 6.50195C9.95312 6.50195 8.07812 8.38672 8.07812 10.7207C8.07812 13.0547 9.96289 14.9395 12.2871 14.9395Z" fill="#F05523"/>
</svg>
