<svg width="21" height="20" viewBox="0 0 21 20" fill="none" xmlns="http://www.w3.org/2000/svg">
<path d="M10.543 19.7441C15.9043 19.7441 20.3379 15.3105 20.3379 9.94922C20.3379 4.57812 15.9043 0.154297 10.5332 0.154297C5.17188 0.154297 0.748047 4.57812 0.748047 9.94922C0.748047 15.3105 5.18164 19.7441 10.543 19.7441ZM9.46875 14.6758C9.20508 14.6758 9.00977 14.5684 8.80469 14.3145L6.1582 11.1406C6.04102 10.9844 5.97266 10.8184 5.97266 10.6426C5.97266 10.3008 6.23633 10.0273 6.57812 10.0273C6.79297 10.0273 6.95898 10.1055 7.14453 10.3398L9.42969 13.1621L13.9219 6.05273C14.0684 5.82812 14.2637 5.70117 14.4688 5.70117C14.791 5.70117 15.0938 5.93555 15.0938 6.28711C15.0938 6.44336 15.0059 6.61914 14.918 6.76562L10.084 14.3145C9.92773 14.5586 9.72266 14.6758 9.46875 14.6758Z" fill="#F05523"/>
</svg>
