<svg width="20" height="20" viewBox="0 0 20 20" fill="none" xmlns="http://www.w3.org/2000/svg">
<path d="M16.5938 6.80859C18.3613 6.80859 19.8164 5.35352 19.8164 3.58594C19.8164 1.81836 18.3613 0.363281 16.5938 0.363281C14.8262 0.363281 13.3711 1.81836 13.3711 3.58594C13.3711 5.35352 14.8262 6.80859 16.5938 6.80859ZM5.50977 19.6797H12.9219C14.6992 19.6797 15.959 19.4844 16.8574 18.5859C17.7656 17.6777 17.9512 16.4375 17.9512 14.6602V7.7168C17.5215 7.87305 17.0625 7.94141 16.584 7.94141C14.1914 7.94141 12.2285 5.97852 12.2285 3.58594C12.2285 3.10742 12.3066 2.64844 12.4531 2.22852H5.45117C3.75195 2.22852 2.49219 2.42383 1.58398 3.33203C0.685547 4.23047 0.490234 5.48047 0.490234 7.18945V14.6602C0.490234 16.4375 0.675781 17.6875 1.57422 18.5859C2.49219 19.4844 3.74219 19.6797 5.50977 19.6797Z" fill="#F05523"/>
</svg>
