<svg width="16" height="21" viewBox="0 0 16 21" fill="none" xmlns="http://www.w3.org/2000/svg">
<path d="M0.833984 14.1523C0.833984 18.498 3.64648 20.8906 7.36719 20.8906C10.4434 20.8906 12.5137 19.4844 13.7441 16.4277C14.3789 14.9531 14.9062 13.2832 15.4434 11.4277C15.6289 10.8027 15.873 10.0605 15.873 9.69922C15.873 9.20117 15.502 8.87891 14.9941 8.87891C14.4766 8.87891 14.1348 9.19141 13.7734 9.95312L12.4746 12.8828C12.3184 13.2539 12.123 13.3711 11.9277 13.3711C11.6934 13.3711 11.5078 13.2246 11.5078 12.8047V2.91211C11.5078 2.38477 11.0684 1.94531 10.541 1.94531C10.0039 1.94531 9.56445 2.38477 9.56445 2.91211V9.93359C9.28125 9.81641 8.96875 9.71875 8.63672 9.66016V1.34961C8.63672 0.8125 8.20703 0.373047 7.66992 0.373047C7.13281 0.373047 6.70312 0.8125 6.70312 1.34961V9.54297C6.3418 9.57227 5.99023 9.61133 5.6582 9.66992V2.28711C5.6582 1.75 5.21875 1.31055 4.69141 1.31055C4.1543 1.31055 3.71484 1.75 3.71484 2.28711V10.2949C3.36328 10.4707 3.05078 10.6562 2.77734 10.8418V5.28516C2.77734 4.74805 2.33789 4.30859 1.80078 4.30859C1.27344 4.30859 0.833984 4.74805 0.833984 5.28516V14.1523Z" fill="#F05523"/>
</svg>
