<svg width="21" height="22" viewBox="0 0 21 22" fill="none" xmlns="http://www.w3.org/2000/svg">
<path d="M9.9375 21.0762H11.793C12.3203 21.0762 12.6914 20.7734 12.8086 20.2461L13.3066 18.1465C13.6387 18.0293 13.9707 17.9023 14.2734 17.7656L16.0996 18.8984C16.5488 19.1914 17.0273 19.1426 17.3887 18.7812L18.6973 17.4824C19.0684 17.1113 19.1172 16.6133 18.8145 16.1641L17.6914 14.3477C17.8281 14.0352 17.9551 13.7129 18.0625 13.3906L20.1621 12.9023C20.6992 12.7852 20.9922 12.4141 20.9922 11.8867V10.0508C20.9922 9.5332 20.6992 9.16211 20.1621 9.04492L18.0723 8.54688C17.9551 8.19531 17.8184 7.87305 17.7012 7.58984L18.834 5.75391C19.1172 5.29492 19.0879 4.82617 18.707 4.44531L17.3887 3.14648C17.0176 2.79492 16.5684 2.73633 16.1191 3.00977L14.2734 4.16211C13.9707 4.02539 13.6484 3.89844 13.3066 3.78125L12.8086 1.66211C12.6914 1.13477 12.3203 0.832031 11.793 0.832031H9.9375C9.41016 0.832031 9.04883 1.13477 8.93164 1.66211L8.43359 3.76172C8.0918 3.87891 7.75977 4.00586 7.45703 4.15234L5.61133 3.00977C5.16211 2.73633 4.71289 2.78516 4.3418 3.14648L3.02344 4.44531C2.64258 4.82617 2.61328 5.29492 2.90625 5.75391L4.0293 7.58984C3.91211 7.87305 3.77539 8.19531 3.6582 8.54688L1.57812 9.04492C1.04102 9.16211 0.748047 9.5332 0.748047 10.0508V11.8867C0.748047 12.4141 1.04102 12.7852 1.57812 12.9023L3.67773 13.3906C3.77539 13.7129 3.90234 14.0352 4.03906 14.3477L2.91602 16.1641C2.61328 16.6133 2.66211 17.1113 3.04297 17.4824L4.3418 18.7812C4.70312 19.1426 5.18164 19.1914 5.63086 18.8984L7.45703 17.7656C7.76953 17.9023 8.0918 18.0293 8.43359 18.1465L8.93164 20.2461C9.04883 20.7734 9.41016 21.0762 9.9375 21.0762ZM10.875 14.4453C8.96094 14.4453 7.37891 12.8633 7.37891 10.9395C7.37891 9.04492 8.96094 7.46289 10.875 7.46289C12.7891 7.46289 14.3613 9.04492 14.3613 10.9395C14.3613 12.8633 12.7891 14.4453 10.875 14.4453Z" fill="#F05523"/>
</svg>
