<svg width="21" height="19" viewBox="0 0 21 19" fill="none" xmlns="http://www.w3.org/2000/svg">
<path d="M4.9043 9.5H15.5879C18 9.5 20.002 7.73242 20.002 5.17383C20.002 2.61523 18 0.847656 15.5879 0.847656H4.9043C2.49219 0.847656 0.490234 2.61523 0.490234 5.17383C0.490234 7.73242 2.49219 9.5 4.9043 9.5ZM4.9043 8.34766C3.17578 8.34766 1.63281 7.04883 1.63281 5.17383C1.63281 3.29883 3.17578 2 4.9043 2H15.5879C17.3164 2 18.8594 3.29883 18.8594 5.17383C18.8594 7.04883 17.3164 8.34766 15.5879 8.34766H4.9043ZM4.9043 7.70312C6.30078 7.71289 7.43359 6.57031 7.44336 5.1543C7.45312 3.76758 6.31055 2.64453 4.9043 2.64453C3.50781 2.64453 2.38477 3.77734 2.38477 5.16406C2.38477 6.57031 3.49805 7.69336 4.9043 7.70312ZM4.50391 18.9922H15.9883C18.2441 18.9922 20.002 17.4199 20.002 15.1445C20.002 12.8691 18.2441 11.2969 15.9883 11.2969H4.50391C2.24805 11.2969 0.490234 12.8691 0.490234 15.1445C0.490234 17.4199 2.24805 18.9922 4.50391 18.9922ZM16.2422 17.8203C14.7578 17.8203 13.5762 16.6191 13.5762 15.1445C13.5762 13.6699 14.7578 12.4785 16.2422 12.4785C17.7266 12.4785 18.918 13.6699 18.918 15.1348C18.9082 16.6191 17.707 17.8301 16.2422 17.8203Z" fill="#F05523"/>
</svg>
