<svg width="51" height="57" viewBox="0 0 51 57" fill="none" xmlns="http://www.w3.org/2000/svg">
<path d="M38.4434 18.915C43.3428 18.915 47.4492 14.8369 47.4492 9.90918C47.4492 4.95312 43.3428 0.90332 38.4434 0.90332C33.4873 0.90332 29.4092 4.95312 29.4092 9.90918C29.4092 14.8369 33.4873 18.915 38.4434 18.915ZM4.37402 46.4424H47.4775C49.6299 46.4424 50.9609 45.2812 50.9609 43.582C50.9609 40.8916 48.2988 38.5127 46.0332 36.1338C44.0225 33.9814 43.6826 29.5635 43.3428 25.7969C43.2861 24.1826 43.1729 22.6816 42.9746 21.209C41.5869 21.8604 40.0293 22.2285 38.415 22.2285C31.6465 22.2285 26.0674 16.6777 26.0674 9.90918C26.0674 6.79395 27.2568 3.96191 29.1826 1.78125C28.2197 1.2998 27.1436 1.04492 25.9258 1.04492C22.1309 1.04492 19.4121 3.73535 18.5059 7.27539C11.5674 9.62598 8.87695 16.3096 8.50879 25.7969C8.16895 29.5635 7.85742 33.9814 5.81836 36.1338C3.55273 38.5127 0.918945 40.8916 0.918945 43.582C0.918945 45.2812 2.22168 46.4424 4.37402 46.4424ZM25.9258 56.6094C30.3438 56.6094 33.5156 53.4092 33.9404 49.7559H17.9111C18.3359 53.4092 21.5078 56.6094 25.9258 56.6094Z" fill="black"/>
</svg>
